<?xml version="1.0" encoding="UTF-8"?>
<svg xmlns="http://www.w3.org/2000/svg" width="1400" height="5200" viewBox="0 0 1400 5200">
  <defs>
    <style>
      .bg { fill: #F5F2EC; }
      .section { fill: #FFFFFF; stroke: #DDD5C8; stroke-width: 1; }
      .placeholder { fill: #EDE7D9; stroke: #C9C0AD; stroke-width: 1; stroke-dasharray: 4,3; }
      .image-ph { fill: #E3DBC8; stroke: #B5AB95; stroke-width: 1; }
      .button-primary { fill: #D4A574; }
      .button-secondary { fill: #FFFFFF; stroke: #B8894F; stroke-width: 2; }
      .button-dark { fill: #2C2C2C; }
      .text-large { font-family: 'Hiragino Mincho ProN', '游明朝', serif; font-size: 32px; fill: #2C2C2C; font-weight: bold; }
      .text-xlarge { font-family: 'Hiragino Mincho ProN', '游明朝', serif; font-size: 48px; fill: #2C2C2C; font-weight: bold; }
      .text-body { font-family: 'Hiragino Sans', '游ゴシック', sans-serif; font-size: 16px; fill: #6B6B6B; }
      .text-body-dark { font-family: 'Hiragino Sans', '游ゴシック', sans-serif; font-size: 16px; fill: #2C2C2C; }
      .text-small { font-family: 'Hiragino Sans', sans-serif; font-size: 12px; fill: #9B9B9B; }
      .text-button { font-family: 'Hiragino Sans', sans-serif; font-size: 15px; font-weight: bold; }
      .label-section { font-family: 'Hiragino Sans', sans-serif; font-size: 14px; fill: #B8894F; font-weight: bold; }
      .annotation { font-family: 'Hiragino Sans', sans-serif; font-size: 11px; fill: #7C8E5C; font-style: italic; }
      .divider { stroke: #DDD5C8; stroke-width: 1; stroke-dasharray: 6,6; fill: none; }
    </style>
  </defs>

  <!-- Wireframe canvas -->
  <rect width="1400" height="5200" class="bg"/>

  <!-- Page area: centered, 1280 wide -->
  <rect x="60" y="40" width="1280" height="5120" fill="#FAFAF6" stroke="#C9C0AD" stroke-width="1"/>

  <!-- ============================================== -->
  <!-- 0. HEADER (sticky)                              -->
  <!-- ============================================== -->
  <g transform="translate(60, 40)">
    <rect width="1280" height="80" fill="#FFFFFF" stroke="#DDD5C8" stroke-width="1"/>
    <text x="40" y="48" class="text-large">はちのわ</text>
    <text x="170" y="50" class="text-small">— 全国蜜蜂レスキューネットワーク</text>

    <!-- Right nav -->
    <text x="800" y="48" class="text-body">仕組み</text>
    <text x="880" y="48" class="text-body">分蜂とは</text>
    <text x="970" y="48" class="text-body">はちみつ</text>

    <rect x="1050" y="20" width="120" height="40" class="button-primary" rx="20"/>
    <text x="1110" y="46" class="text-button" fill="#FFFFFF" text-anchor="middle">分蜂を報告</text>

    <rect x="1180" y="20" width="80" height="40" class="button-secondary" rx="20"/>
    <text x="1220" y="46" class="text-button" fill="#B8894F" text-anchor="middle">登録</text>

    <!-- Annotation -->
    <text x="1295" y="55" class="annotation">0. ヘッダー（sticky）</text>
  </g>

  <!-- ============================================== -->
  <!-- 1. HERO                                         -->
  <!-- ============================================== -->
  <g transform="translate(60, 120)">
    <rect width="1280" height="640" fill="#FAF3E2"/>

    <!-- Decorative hexagons -->
    <polygon points="100,80 130,95 130,125 100,140 70,125 70,95" fill="#D4A574" opacity="0.2"/>
    <polygon points="1180,500 1210,515 1210,545 1180,560 1150,545 1150,515" fill="#D4A574" opacity="0.2"/>
    <polygon points="50,400 75,415 75,440 50,455 25,440 25,415" fill="#A8B889" opacity="0.2"/>

    <!-- Left: Text -->
    <text x="100" y="210" class="text-xlarge">ハチの大群、</text>
    <text x="100" y="270" class="text-xlarge">見つけた？</text>
    <text x="100" y="335" class="text-large" fill="#B8894F">それ、分蜂かも。</text>

    <text x="100" y="395" class="text-body-dark">困った人と、保護したい養蜂家をつなぐ全国ネットワーク。</text>
    <text x="100" y="425" class="text-body-dark">報告は無料、1分で完了。</text>

    <!-- CTAs -->
    <rect x="100" y="465" width="240" height="60" class="button-primary" rx="30"/>
    <text x="220" y="503" class="text-button" font-size="17" fill="#FFFFFF" text-anchor="middle">分蜂を報告する（無料）</text>

    <rect x="360" y="465" width="240" height="60" class="button-secondary" rx="30"/>
    <text x="480" y="503" class="text-button" font-size="17" fill="#B8894F" text-anchor="middle">養蜂家として登録</text>

    <text x="100" y="555" class="text-small">⚠ 個人情報は運営のみ保持、公開される情報は最小限です</text>

    <!-- Right: Illustration placeholder -->
    <rect x="780" y="120" width="420" height="420" class="image-ph" rx="12"/>
    <text x="990" y="320" class="text-body" text-anchor="middle">手描きイラスト</text>
    <text x="990" y="345" class="text-body" text-anchor="middle">（蜂・花・人）</text>
    <line x1="780" y1="120" x2="1200" y2="540" stroke="#B5AB95" stroke-width="0.5"/>
    <line x1="1200" y1="120" x2="780" y2="540" stroke="#B5AB95" stroke-width="0.5"/>

    <!-- Annotation -->
    <text x="1295" y="380" class="annotation">1. Hero</text>
  </g>

  <!-- ============================================== -->
  <!-- 2. FLOWCHART                                    -->
  <!-- ============================================== -->
  <g transform="translate(60, 760)">
    <rect width="1280" height="780" fill="#FFFFFF"/>

    <text x="640" y="80" class="text-large" text-anchor="middle">これは何の蜂？</text>
    <line x1="600" y1="100" x2="680" y2="100" stroke="#D4A574" stroke-width="2"/>
    <text x="640" y="135" class="text-body" text-anchor="middle">迷ったら、このフローで確認してください</text>

    <!-- Flowchart image placeholder -->
    <rect x="290" y="170" width="700" height="540" class="image-ph" rx="16"/>
    <text x="640" y="430" class="text-body" text-anchor="middle" font-size="18">判定フローチャート画像</text>
    <text x="640" y="455" class="text-body" text-anchor="middle">flowchart_1080.svg を埋め込み</text>
    <line x1="290" y1="170" x2="990" y2="710" stroke="#B5AB95" stroke-width="0.5"/>
    <line x1="990" y1="170" x2="290" y2="710" stroke="#B5AB95" stroke-width="0.5"/>

    <text x="1295" y="430" class="annotation">2. 判定フローチャート</text>
  </g>

  <!-- ============================================== -->
  <!-- 3. 3 STEPS                                      -->
  <!-- ============================================== -->
  <g transform="translate(60, 1540)">
    <rect width="1280" height="500" fill="#F5F0E6"/>

    <text x="640" y="80" class="text-large" text-anchor="middle">3ステップで解決</text>
    <line x1="600" y1="100" x2="680" y2="100" stroke="#D4A574" stroke-width="2"/>

    <!-- 3 cards -->
    <g transform="translate(120, 160)">
      <rect width="320" height="280" fill="#FFFFFF" stroke="#DDD5C8" rx="12"/>
      <circle cx="60" cy="60" r="32" fill="#D4A574"/>
      <text x="60" y="70" text-anchor="middle" font-family="serif" font-size="28" font-weight="bold" fill="#FFFFFF">1</text>
      <text x="20" y="140" class="text-large" font-size="22">報告する</text>
      <text x="20" y="180" class="text-body" font-size="14">現場の写真と場所を</text>
      <text x="20" y="200" class="text-body" font-size="14">送るだけ（1〜2分）</text>
    </g>

    <g transform="translate(480, 160)">
      <rect width="320" height="280" fill="#FFFFFF" stroke="#DDD5C8" rx="12"/>
      <circle cx="60" cy="60" r="32" fill="#D4A574"/>
      <text x="60" y="70" text-anchor="middle" font-family="serif" font-size="28" font-weight="bold" fill="#FFFFFF">2</text>
      <text x="20" y="140" class="text-large" font-size="22">養蜂家に届く</text>
      <text x="20" y="180" class="text-body" font-size="14">近くの登録者に</text>
      <text x="20" y="200" class="text-body" font-size="14">お知らせが行きます</text>
    </g>

    <g transform="translate(840, 160)">
      <rect width="320" height="280" fill="#FFFFFF" stroke="#DDD5C8" rx="12"/>
      <circle cx="60" cy="60" r="32" fill="#D4A574"/>
      <text x="60" y="70" text-anchor="middle" font-family="serif" font-size="28" font-weight="bold" fill="#FFFFFF">3</text>
      <text x="20" y="140" class="text-large" font-size="22">レスキュー</text>
      <text x="20" y="180" class="text-body" font-size="14">養蜂家が駆けつけて</text>
      <text x="20" y="200" class="text-body" font-size="14">保護してくれます</text>
    </g>

    <text x="1295" y="290" class="annotation">3. 3ステップで解決</text>
  </g>

  <!-- ============================================== -->
  <!-- 4. 分蜂とは                                      -->
  <!-- ============================================== -->
  <g transform="translate(60, 2040)">
    <rect width="1280" height="460" fill="#FFFFFF"/>

    <!-- Left: image placeholder -->
    <rect x="120" y="80" width="440" height="320" class="image-ph" rx="12"/>
    <text x="340" y="245" class="text-body" text-anchor="middle">分蜂の写真／イラスト</text>
    <line x1="120" y1="80" x2="560" y2="400" stroke="#B5AB95" stroke-width="0.5"/>
    <line x1="560" y1="80" x2="120" y2="400" stroke="#B5AB95" stroke-width="0.5"/>

    <!-- Right: text -->
    <text x="620" y="120" class="text-large">分蜂って、なんですか？</text>
    <line x1="620" y1="140" x2="700" y2="140" stroke="#D4A574" stroke-width="2"/>

    <text x="620" y="190" class="text-body-dark" font-size="17">ハチが集団で「家を引っ越し」する</text>
    <text x="620" y="215" class="text-body-dark" font-size="17">自然現象です。</text>

    <text x="620" y="265" class="text-body" font-size="15">・ 数時間〜半日でいなくなります</text>
    <text x="620" y="295" class="text-body" font-size="15">・ お腹に蜜を蓄え、ハチはとても穏やか</text>
    <text x="620" y="325" class="text-body" font-size="15">・ 攻撃的になるのは、巣を作ったあと</text>
    <text x="620" y="355" class="text-body" font-size="15">・ 駆除するのは、とてももったいない</text>

    <text x="620" y="395" class="text-button" font-size="14" fill="#B8894F">→ もっと詳しく</text>

    <text x="1295" y="240" class="annotation">4. 分蜂とは</text>
  </g>

  <!-- ============================================== -->
  <!-- 5. 最近の活動                                    -->
  <!-- ============================================== -->
  <g transform="translate(60, 2500)">
    <rect width="1280" height="440" fill="#F5F0E6"/>

    <text x="640" y="80" class="text-large" text-anchor="middle">最近の対応</text>
    <line x1="600" y1="100" x2="680" y2="100" stroke="#D4A574" stroke-width="2"/>
    <text x="640" y="135" class="text-body" text-anchor="middle">"いま、動いている" を見える化</text>

    <!-- Table -->
    <g transform="translate(280, 180)">
      <rect width="720" height="44" fill="#2C2C2C" rx="6"/>
      <text x="40" y="30" font-family="sans-serif" font-size="13" font-weight="bold" fill="#FFFFFF">日付</text>
      <text x="260" y="30" font-family="sans-serif" font-size="13" font-weight="bold" fill="#FFFFFF">エリア</text>
      <text x="500" y="30" font-family="sans-serif" font-size="13" font-weight="bold" fill="#FFFFFF">状況</text>

      <g transform="translate(0, 50)">
        <rect width="720" height="40" fill="#FFFFFF" stroke="#DDD5C8"/>
        <text x="40" y="26" class="text-body-dark">2026/05/02</text>
        <text x="260" y="26" class="text-body-dark">札幌市西区</text>
        <text x="500" y="26" font-family="sans-serif" font-size="14" fill="#B8894F" font-weight="bold">対応中</text>
      </g>
      <g transform="translate(0, 92)">
        <rect width="720" height="40" fill="#FFFFFF" stroke="#DDD5C8"/>
        <text x="40" y="26" class="text-body-dark">2026/04/28</text>
        <text x="260" y="26" class="text-body-dark">札幌市北区</text>
        <text x="500" y="26" font-family="sans-serif" font-size="14" fill="#6B8E23" font-weight="bold">🐝 保護完了</text>
      </g>
      <g transform="translate(0, 134)">
        <rect width="720" height="40" fill="#FFFFFF" stroke="#DDD5C8"/>
        <text x="40" y="26" class="text-body-dark">2026/04/25</text>
        <text x="260" y="26" class="text-body-dark">札幌市豊平区</text>
        <text x="500" y="26" font-family="sans-serif" font-size="14" fill="#6B8E23" font-weight="bold">🐝 保護完了</text>
      </g>
      <g transform="translate(0, 176)">
        <rect width="720" height="40" fill="#FFFFFF" stroke="#DDD5C8"/>
        <text x="40" y="26" class="text-body-dark">2026/04/23</text>
        <text x="260" y="26" class="text-body-dark">札幌市東区</text>
        <text x="500" y="26" font-family="sans-serif" font-size="14" fill="#B8894F" font-weight="bold">対応中</text>
      </g>
    </g>

    <text x="1295" y="280" class="annotation">5. 最近の活動（要検討）</text>
  </g>

  <!-- ============================================== -->
  <!-- 6. 養蜂家のあなたへ                              -->
  <!-- ============================================== -->
  <g transform="translate(60, 2940)">
    <rect width="1280" height="460" fill="#3D3833"/>

    <text x="640" y="100" class="text-large" text-anchor="middle" fill="#F0C470">分蜂群を、無料で。</text>
    <line x1="600" y1="120" x2="680" y2="120" stroke="#F0C470" stroke-width="2"/>
    <text x="640" y="155" class="text-body" text-anchor="middle" fill="#F8F1E4">捕獲できる方を、募集しています</text>

    <!-- 3 benefits -->
    <g transform="translate(180, 200)">
      <circle cx="40" cy="40" r="32" fill="#F0C470" opacity="0.2"/>
      <text x="40" y="50" text-anchor="middle" font-size="20">🐝</text>
      <text x="0" y="105" class="text-button" fill="#FFFFFF" font-size="15">分蜂群を無料で</text>
      <text x="0" y="128" class="text-body" fill="#CCCCCC" font-size="13">入手できます</text>
    </g>
    <g transform="translate(500, 200)">
      <circle cx="40" cy="40" r="32" fill="#F0C470" opacity="0.2"/>
      <text x="40" y="50" text-anchor="middle" font-size="20">🍯</text>
      <text x="0" y="105" class="text-button" fill="#FFFFFF" font-size="15">蜂蜜販売ページ</text>
      <text x="0" y="128" class="text-body" fill="#CCCCCC" font-size="13">を掲載できます</text>
    </g>
    <g transform="translate(820, 200)">
      <circle cx="40" cy="40" r="32" fill="#F0C470" opacity="0.2"/>
      <text x="40" y="50" text-anchor="middle" font-size="20">🤝</text>
      <text x="0" y="105" class="text-button" fill="#FFFFFF" font-size="15">全国ネットワーク</text>
      <text x="0" y="128" class="text-body" fill="#CCCCCC" font-size="13">に参加できます</text>
    </g>

    <rect x="510" y="370" width="260" height="56" fill="#F0C470" rx="28"/>
    <text x="640" y="406" class="text-button" font-size="16" fill="#2C2C2C" text-anchor="middle">養蜂家として登録</text>

    <text x="1295" y="240" class="annotation">6. 養蜂家のあなたへ</text>
  </g>

  <!-- ============================================== -->
  <!-- 7. はちみつポータル                              -->
  <!-- ============================================== -->
  <g transform="translate(60, 3400)">
    <rect width="1280" height="460" fill="#FFFFFF"/>

    <text x="640" y="80" class="text-large" text-anchor="middle">保護した養蜂家の、はちみつ</text>
    <line x1="600" y1="100" x2="680" y2="100" stroke="#D4A574" stroke-width="2"/>
    <text x="640" y="135" class="text-body" text-anchor="middle">ハチに優しい選択を、買い物で応援できます</text>

    <!-- 4 honey cards -->
    <g transform="translate(120, 180)">
      <rect width="240" height="220" fill="#FAF3E2" stroke="#DDD5C8" rx="8"/>
      <rect x="20" y="20" width="200" height="120" class="image-ph"/>
      <text x="120" y="86" class="text-body" text-anchor="middle" font-size="12">蜂蜜写真</text>
      <text x="20" y="165" class="text-button" font-size="14">かえるやはちみつ</text>
      <text x="20" y="190" class="text-body" font-size="12">札幌 / アカシア・百花</text>
    </g>
    <g transform="translate(380, 180)">
      <rect width="240" height="220" fill="#FAF3E2" stroke="#DDD5C8" rx="8"/>
      <rect x="20" y="20" width="200" height="120" class="image-ph"/>
      <text x="120" y="86" class="text-body" text-anchor="middle" font-size="12">蜂蜜写真</text>
      <text x="20" y="165" class="text-button" font-size="14">養蜂家B</text>
      <text x="20" y="190" class="text-body" font-size="12">地域 / 商品名</text>
    </g>
    <g transform="translate(640, 180)">
      <rect width="240" height="220" fill="#FAF3E2" stroke="#DDD5C8" rx="8"/>
      <rect x="20" y="20" width="200" height="120" class="image-ph"/>
      <text x="120" y="86" class="text-body" text-anchor="middle" font-size="12">蜂蜜写真</text>
      <text x="20" y="165" class="text-button" font-size="14">養蜂家C</text>
      <text x="20" y="190" class="text-body" font-size="12">地域 / 商品名</text>
    </g>
    <g transform="translate(900, 180)">
      <rect width="240" height="220" fill="#FAF3E2" stroke="#DDD5C8" rx="8"/>
      <rect x="20" y="20" width="200" height="120" class="image-ph"/>
      <text x="120" y="86" class="text-body" text-anchor="middle" font-size="12">蜂蜜写真</text>
      <text x="20" y="165" class="text-button" font-size="14">養蜂家D</text>
      <text x="20" y="190" class="text-body" font-size="12">地域 / 商品名</text>
    </g>

    <text x="640" y="430" class="text-button" font-size="14" fill="#B8894F" text-anchor="middle">→ もっと見る</text>

    <text x="1295" y="290" class="annotation">7. はちみつポータル</text>
  </g>

  <!-- ============================================== -->
  <!-- 8. 世界では                                      -->
  <!-- ============================================== -->
  <g transform="translate(60, 3860)">
    <rect width="1280" height="400" fill="#F5F0E6"/>

    <text x="640" y="80" class="text-large" text-anchor="middle">世界では、もう始まっています</text>
    <line x1="600" y1="100" x2="680" y2="100" stroke="#D4A574" stroke-width="2"/>
    <text x="640" y="135" class="text-body" text-anchor="middle">同類の仕組みは、すでに6か国で運営中</text>

    <!-- 6 country items -->
    <g transform="translate(200, 180)">
      <rect width="140" height="100" fill="#FFFFFF" stroke="#DDD5C8" rx="8"/>
      <text x="70" y="30" text-anchor="middle" font-size="22">🇺🇸</text>
      <text x="70" y="55" class="text-button" font-size="13" text-anchor="middle">Swarmed</text>
      <text x="70" y="78" class="text-body" font-size="10" text-anchor="middle">登録10,000人超</text>
    </g>
    <g transform="translate(360, 180)">
      <rect width="140" height="100" fill="#FFFFFF" stroke="#DDD5C8" rx="8"/>
      <text x="70" y="30" text-anchor="middle" font-size="22">🇬🇧</text>
      <text x="70" y="55" class="text-button" font-size="13" text-anchor="middle">BBKA</text>
      <text x="70" y="78" class="text-body" font-size="10" text-anchor="middle">全国協会と連携</text>
    </g>
    <g transform="translate(520, 180)">
      <rect width="140" height="100" fill="#FFFFFF" stroke="#DDD5C8" rx="8"/>
      <text x="70" y="30" text-anchor="middle" font-size="22">🇩🇪</text>
      <text x="70" y="55" class="text-button" font-size="13" text-anchor="middle">Mellifera</text>
      <text x="70" y="78" class="text-body" font-size="10" text-anchor="middle">非営利・オープン</text>
    </g>
    <g transform="translate(680, 180)">
      <rect width="140" height="100" fill="#FFFFFF" stroke="#DDD5C8" rx="8"/>
      <text x="70" y="30" text-anchor="middle" font-size="22">🇫🇷</text>
      <text x="70" y="55" class="text-button" font-size="13" text-anchor="middle">SOS Essaim</text>
      <text x="70" y="78" class="text-body" font-size="10" text-anchor="middle">登録 5,500人</text>
    </g>
    <g transform="translate(840, 180)">
      <rect width="140" height="100" fill="#FFFFFF" stroke="#DDD5C8" rx="8"/>
      <text x="70" y="30" text-anchor="middle" font-size="22">🇦🇺</text>
      <text x="70" y="55" class="text-button" font-size="13" text-anchor="middle">SwarmPatrol</text>
      <text x="70" y="78" class="text-body" font-size="10" text-anchor="middle">SMS通知</text>
    </g>
    <g transform="translate(1000, 180)">
      <rect width="140" height="100" fill="#FFFFFF" stroke="#DDD5C8" rx="8"/>
      <text x="70" y="30" text-anchor="middle" font-size="22">🇧🇷</text>
      <text x="70" y="55" class="text-button" font-size="13" text-anchor="middle">Infobee</text>
      <text x="70" y="78" class="text-body" font-size="10" text-anchor="middle">公的機関運営</text>
    </g>

    <text x="640" y="345" class="text-large" font-size="22" text-anchor="middle" fill="#6B8E23">日本でも、いま始めます。</text>

    <text x="1295" y="240" class="annotation">8. 世界では</text>
  </g>

  <!-- ============================================== -->
  <!-- 9. 私たちについて                                -->
  <!-- ============================================== -->
  <g transform="translate(60, 4260)">
    <rect width="1280" height="320" fill="#FFFFFF"/>

    <text x="640" y="80" class="text-large" text-anchor="middle">私たちについて</text>
    <line x1="600" y1="100" x2="680" y2="100" stroke="#D4A574" stroke-width="2"/>

    <text x="640" y="160" class="text-body-dark" font-size="18" text-anchor="middle">駆除ではなく、保護を選べる社会へ。</text>

    <text x="640" y="210" class="text-body" text-anchor="middle">はちのわは、札幌で立ち上げた市民発の取り組みです。</text>
    <text x="640" y="232" class="text-body" text-anchor="middle">小さく始めて、全国へ。</text>

    <g transform="translate(440, 260)">
      <text x="0" y="20" class="text-button" font-size="14" fill="#B8894F">利用規約</text>
      <text x="100" y="20" class="text-button" font-size="14" fill="#B8894F">プライバシーポリシー</text>
      <text x="280" y="20" class="text-button" font-size="14" fill="#B8894F">お問い合わせ</text>
    </g>

    <text x="1295" y="170" class="annotation">9. 私たちについて</text>
  </g>

  <!-- ============================================== -->
  <!-- 10. SNS / お知らせ                              -->
  <!-- ============================================== -->
  <g transform="translate(60, 4580)">
    <rect width="1280" height="280" fill="#F5F0E6"/>

    <text x="640" y="80" class="text-large" text-anchor="middle">お知らせ・最新情報</text>
    <line x1="600" y1="100" x2="680" y2="100" stroke="#D4A574" stroke-width="2"/>

    <g transform="translate(440, 140)">
      <rect width="80" height="80" fill="#FFFFFF" stroke="#DDD5C8" rx="40"/>
      <text x="40" y="50" text-anchor="middle" font-size="32">𝕏</text>
    </g>
    <g transform="translate(560, 140)">
      <rect width="80" height="80" fill="#FFFFFF" stroke="#DDD5C8" rx="40"/>
      <text x="40" y="50" text-anchor="middle" font-size="20">@</text>
    </g>
    <g transform="translate(680, 140)">
      <rect width="80" height="80" fill="#FFFFFF" stroke="#DDD5C8" rx="40"/>
      <text x="40" y="50" text-anchor="middle" font-size="20">📷</text>
    </g>
    <g transform="translate(800, 140)">
      <rect width="80" height="80" fill="#FFFFFF" stroke="#DDD5C8" rx="40"/>
      <text x="40" y="50" text-anchor="middle" font-size="20">📝</text>
    </g>

    <text x="640" y="248" class="text-body" font-size="13" text-anchor="middle">X ／ Threads ／ Instagram ／ note でフォロー</text>

    <text x="1295" y="160" class="annotation">10. SNS</text>
  </g>

  <!-- ============================================== -->
  <!-- 11. FOOTER                                      -->
  <!-- ============================================== -->
  <g transform="translate(60, 4860)">
    <rect width="1280" height="260" fill="#2C2C2C"/>

    <text x="80" y="80" font-family="serif" font-size="28" font-weight="bold" fill="#F0C470">はちのわ</text>
    <text x="80" y="115" font-family="sans-serif" font-size="13" fill="#F8F1E4">全国蜜蜂レスキューネットワーク</text>
    <text x="80" y="148" font-family="sans-serif" font-size="11" fill="#9B9B9B">蜂と人の共助の輪を、いっしょに。</text>

    <text x="500" y="80" font-family="sans-serif" font-size="13" fill="#F8F1E4" font-weight="bold">サービス</text>
    <text x="500" y="108" font-family="sans-serif" font-size="12" fill="#CCCCCC">分蜂を報告</text>
    <text x="500" y="130" font-family="sans-serif" font-size="12" fill="#CCCCCC">養蜂家として登録</text>
    <text x="500" y="152" font-family="sans-serif" font-size="12" fill="#CCCCCC">はちみつポータル</text>

    <text x="700" y="80" font-family="sans-serif" font-size="13" fill="#F8F1E4" font-weight="bold">運営情報</text>
    <text x="700" y="108" font-family="sans-serif" font-size="12" fill="#CCCCCC">私たちについて</text>
    <text x="700" y="130" font-family="sans-serif" font-size="12" fill="#CCCCCC">活動報告</text>
    <text x="700" y="152" font-family="sans-serif" font-size="12" fill="#CCCCCC">お問い合わせ</text>

    <text x="900" y="80" font-family="sans-serif" font-size="13" fill="#F8F1E4" font-weight="bold">規約</text>
    <text x="900" y="108" font-family="sans-serif" font-size="12" fill="#CCCCCC">利用規約</text>
    <text x="900" y="130" font-family="sans-serif" font-size="12" fill="#CCCCCC">プライバシーポリシー</text>

    <line x1="80" y1="200" x2="1200" y2="200" stroke="#5C5C5C" stroke-width="1"/>
    <text x="80" y="230" font-family="sans-serif" font-size="11" fill="#9B9B9B">© 2026 はちのわ</text>
    <text x="1200" y="230" font-family="sans-serif" font-size="11" fill="#9B9B9B" text-anchor="end">hachinowa.org</text>

    <text x="1295" y="140" class="annotation">11. フッター</text>
  </g>

  <!-- ============================================== -->
  <!-- Bottom title                                    -->
  <!-- ============================================== -->
  <text x="700" y="5165" font-family="sans-serif" font-size="14" fill="#7A6F5F" text-anchor="middle">— はちのわ LP ワイヤーフレーム（PC・1280px幅）／ 2026.05 —</text>
</svg>
