<svg xmlns="http://www.w3.org/2000/svg" viewBox="0 135 742 525" fill="#C9B98A">
  <path d="M330.6,267.5c1.2-2.2,3.6-3.5,6-3.5h69.3c2.5,0,4.8,1.3,6,3.5l3.5,6h0c2.7,4.7,9.4,4.7,12.1,0l4.4-7.7c5.4-9.3,5.4-20.7,0-30l-15.9-27.5c-6.3-10.8-17.8-17.5-30.3-17.5h-28.9c-12.5,0-24.1,6.7-30.3,17.5l-15.9,27.5c-5.4,9.3-5.4,20.7,0,30l4.4,7.7c2.7,4.7,9.4,4.7,12.1,0h0s3.5-6,3.5-6Z"></path>
  <path d="M287.8,477c.9,5.3,2.5,12.1,4.9,19.6s3.6,4.9,6.7,4.9h143.9c3,0,5.7-2,6.7-4.9,2.4-7.5,4.1-14.3,4.9-19.6.6-3.5.9-7.1,1-10.6,0-3.9-3-7.2-7-7.2h-155c-3.9,0-7.1,3.3-7,7.2s.4,7.1,1,10.6Z"></path>
  <path d="M376.3,608.6c4.4-4.4,9.3-9.6,14.5-15.5s.8-11.6-5.2-11.6h-28.4c-6,0-9.2,7.1-5.2,11.6,5.2,5.9,10.1,11,14.5,15.5s7.2,2.8,9.9,0Z"></path>
  <path d="M310.4,537.1c4.9,8.7,9.9,16.1,14.7,22.7s3.4,2.9,5.6,2.9h81.2c2.2,0,4.3-1.1,5.6-2.9,4.8-6.6,9.8-14,14.7-22.7,1.2-2.2,2.4-4.3,3.5-6.5,2.4-4.7-.9-10.2-6.2-10.2h-116.5c-5.3,0-8.6,5.6-6.2,10.2s2.3,4.3,3.5,6.5Z"></path>
  <path d="M410,397.9h0c0,0-11,0-11,0h-66.4c0,0-19.3,0-19.3,0-2.4,0-4.7,1.3-6,3.3-5.6,9.1-10.7,19.1-14.4,29.7s1.8,9.3,6.6,9.3h143.7c4.8,0,8.2-4.7,6.6-9.3-3.7-10.5-8.8-20.6-14.4-29.7-1.3-2.1-3.5-3.3-6-3.3h-19.3Z"></path>
  <path d="M410.5,303l-7.2-12.5c-2.7-4.6-7.6-7.5-13-7.5h-38.1c-5.4,0-10.3,2.9-13,7.5l-7.2,12.5-11.8,20.5c-2.7,4.6-2.7,10.3,0,15l15.2,26.3,3.9,6.7c2.7,4.6,7.6,7.5,13,7.5h38.1c5.4,0,10.3-2.9,13-7.5l3.9-6.7,15.2-26.3c2.7-4.6,2.7-10.3,0-15l-11.8-20.5Z"></path>
  <path d="M406,193.8c.9-3,2.5-7.4,5.1-12.4,10.2-19.5,26.2-28,31.5-30.7,6.6-3.4,15.2-7.7,21.7-4.1.9.5,4.4,2.6,5,6.2.7,4.7-4,8.4-4.6,9-5.1,4-10.1,1.8-17.1,2.9-11.6,1.7-19.1,11.1-25.3,18.7-6.9,8.4-10.3,17-12,23.1-1.4-4.2-2.7-8.4-4.1-12.7Z"></path>
  <path d="M336.6,193.8c-.9-3-2.5-7.4-5.1-12.4-10.2-19.5-26.2-28-31.5-30.7-6.6-3.4-15.2-7.7-21.7-4.1-.9.5-4.4,2.6-5,6.2-.7,4.7,4,8.4,4.6,9,5.1,4,10.1,1.8,17.1,2.9,11.6,1.7,19.1,11.1,25.3,18.7,6.9,8.4,10.3,17,12,23.1,1.4-4.2,2.7-8.4,4.1-12.7Z"></path>
  <path d="M.5,243.5c1.3-3.7,4.7-6,8.4-6.1,58.3-.7,112.7,4.5,161.5,15.5,39.6,8.9,61.1,18.3,79.6,34.9,5.2,4.6,8.7,8.5,15.6,16.3,4.1,4.5,9.1,10.2,16.5,18.2,9.4,10.2,18.8,20.3,28.3,30.1,3.4,3.6,6.8,7.1,10.3,10.6s1.9,2.3,2.3,3.8c1.1,3.9-.4,7.9-3.5,10l-79.4,54.7c-.4.2-.7.5-1.1.6-7.9,3.9-19.6,8-33.7,8-3.6,0-7.3-.3-11.2-.9-10-1.5-19.4-5.1-28.1-10.6-.1,0-.2-.2-.3-.2l-29.3-20.4c-1.2-.8-2.2-1.9-2.9-3.2-1.9-3.5-1.2-7.7,1.3-10.4,2.7-2.9,7.5-8.2,12.2-13.4l2.9-1.3,18.2-.2c1.7,0,2.7,2.1,1.5,3.3-2.6,2.9-5.8,6.4-8.9,9.8-1.9,2.2-3.9,4.3-5.8,6.4l20.9,14.5c6.5,4.1,13.7,6.7,21.1,7.9,14.9,2.3,27.3-2.2,33.7-5.2l70.1-48.2c-2.3-2.3-4.5-4.7-6.8-7.1-8.3-8.7-16.6-17.6-24.8-26.5-7.4-8.1-12.7-14-16.6-18.4-.4-.4-.7-.8-1-1.1-6-6.7-9-10-13.2-13.8-15.9-14.2-35.3-22.6-71.5-30.7-44.1-9.9-92.8-15-145.1-15.1,2.3,6.3,4.9,12.5,7.8,18.5,6.8,13.9,13.8,28.3,29,41.8,4,3.6,15.1,12.6,31.7,19.3,19.7,7.9,36.4,8.3,47.4,8.5l112.9-1.3c1.1,0,2.2.5,3,1.3l12.1,13.2c1.2,1.3.3,3.3-1.5,3.4l-126.5,1.4c0,0-.2,0-.3,0-11.6-.2-31.1-.6-53.9-9.8-18.6-7.4-31.2-17.3-37-22.5-17.7-15.8-26.3-33.3-33.1-47.3-5.1-10.5-9.4-21.5-12.6-32.6s-.6-3.8,0-5.7Z"></path>
  <path d="M742.1,243.5c-1.3-3.7-4.7-6-8.4-6.1-58.3-.7-112.7,4.5-161.5,15.5-39.6,8.9-61.1,18.3-79.6,34.9-5.2,4.6-8.7,8.5-15.6,16.3s-9.1,10.2-16.5,18.2c-9.4,10.2-18.8,20.3-28.3,30.1-3.4,3.6-6.8,7.1-10.3,10.6s-1.9,2.3-2.3,3.8c-1.1,3.9.4,7.9,3.5,10l79.4,54.7c.4.2.7.5,1.1.6,7.9,3.9,19.6,8,33.7,8,3.6,0,7.3-.3,11.2-.9,10-1.5,19.4-5.1,28.1-10.6.1,0,.2-.2.3-.2l29.3-20.4c1.2-.8,2.2-1.9,2.9-3.2,1.9-3.5,1.2-7.7-1.3-10.4-2.7-2.9-7.5-8.2-12.2-13.4l-2.9-1.3-18.2-.2c-1.7,0-2.7,2.1-1.5,3.3,2.6,2.9,5.8,6.4,8.9,9.8,1.9,2.2,3.9,4.3,5.8,6.4l-20.9,14.5c-6.5,4.1-13.7,6.7-21.1,7.9-14.9,2.3-27.3-2.2-33.7-5.2l-70.1-48.2c2.3-2.3,4.5-4.7,6.8-7.1,8.3-8.7,16.6-17.6,24.8-26.5,7.4-8.1,12.7-14,16.6-18.4.4-.4.7-.8,1-1.1,6-6.7,9-10,13.2-13.8,15.9-14.2,35.3-22.6,71.5-30.7,44.1-9.9,92.8-15,145.1-15.1-2.3,6.3-4.9,12.5-7.8,18.5-6.8,13.9-13.8,28.3-29,41.8-4,3.6-15.1,12.6-31.7,19.3-19.7,7.9-36.4,8.3-47.4,8.5l-112.9-1.3c-1.1,0-2.2.5-3,1.3l-12.1,13.2c-1.2,1.3-.3,3.3,1.5,3.4l126.5,1.4c0,0,.2,0,.3,0,11.6-.2,31.1-.6,53.9-9.8,18.6-7.4,31.2-17.3,37-22.5,17.7-15.8,26.3-33.3,33.1-47.3,5.1-10.5,9.4-21.5,12.6-32.6s.6-3.8,0-5.7Z"></path>
</svg>