<svg xmlns="http://www.w3.org/2000/svg" viewBox="0 0 100 100"><rect y="0.00" width="100" height="7.69" fill="#B22234"></rect><rect y="7.69" width="100" height="7.69" fill="#fff"></rect><rect y="15.38" width="100" height="7.69" fill="#B22234"></rect><rect y="23.08" width="100" height="7.69" fill="#fff"></rect><rect y="30.77" width="100" height="7.69" fill="#B22234"></rect><rect y="38.46" width="100" height="7.69" fill="#fff"></rect><rect y="46.15" width="100" height="7.69" fill="#B22234"></rect><rect y="53.85" width="100" height="7.69" fill="#fff"></rect><rect y="61.54" width="100" height="7.69" fill="#B22234"></rect><rect y="69.23" width="100" height="7.69" fill="#fff"></rect><rect y="76.92" width="100" height="7.69" fill="#B22234"></rect><rect y="84.62" width="100" height="7.69" fill="#fff"></rect><rect y="92.31" width="100" height="7.69" fill="#B22234"></rect><rect width="46" height="53.85" fill="#3C3B6E"></rect><path d="M4.0 1.4 L4.6 3.1 L6.5 3.2 L5.0 4.3 L5.5 6.1 L4.0 5.1 L2.5 6.1 L3.0 4.3 L1.5 3.2 L3.4 3.1 Z" fill="#fff"></path><path d="M12.5 1.4 L13.1 3.1 L15.0 3.2 L13.5 4.3 L14.0 6.1 L12.5 5.1 L11.0 6.1 L11.5 4.3 L10.0 3.2 L11.9 3.1 Z" fill="#fff"></path><path d="M21.0 1.4 L21.6 3.1 L23.5 3.2 L22.0 4.3 L22.5 6.1 L21.0 5.1 L19.5 6.1 L20.0 4.3 L18.5 3.2 L20.4 3.1 Z" fill="#fff"></path><path d="M29.5 1.4 L30.1 3.1 L32.0 3.2 L30.5 4.3 L31.0 6.1 L29.5 5.1 L28.0 6.1 L28.5 4.3 L27.0 3.2 L28.9 3.1 Z" fill="#fff"></path><path d="M38.0 1.4 L38.6 3.1 L40.5 3.2 L39.0 4.3 L39.5 6.1 L38.0 5.1 L36.5 6.1 L37.0 4.3 L35.5 3.2 L37.4 3.1 Z" fill="#fff"></path><path d="M8.3 11.2 L8.9 12.9 L10.7 13.0 L9.3 14.1 L9.8 15.9 L8.3 14.9 L6.7 15.9 L7.2 14.1 L5.8 13.0 L7.6 12.9 Z" fill="#fff"></path><path d="M16.8 11.2 L17.4 12.9 L19.2 13.0 L17.8 14.1 L18.3 15.9 L16.8 14.9 L15.2 15.9 L15.7 14.1 L14.3 13.0 L16.1 12.9 Z" fill="#fff"></path><path d="M25.3 11.2 L25.9 12.9 L27.7 13.0 L26.3 14.1 L26.8 15.9 L25.3 14.9 L23.7 15.9 L24.2 14.1 L22.8 13.0 L24.6 12.9 Z" fill="#fff"></path><path d="M33.8 11.2 L34.4 12.9 L36.2 13.0 L34.8 14.1 L35.3 15.9 L33.8 14.9 L32.2 15.9 L32.7 14.1 L31.3 13.0 L33.1 12.9 Z" fill="#fff"></path><path d="M42.3 11.2 L42.9 12.9 L44.7 13.0 L43.3 14.1 L43.8 15.9 L42.3 14.9 L40.7 15.9 L41.2 14.1 L39.8 13.0 L41.6 12.9 Z" fill="#fff"></path><path d="M4.0 21.0 L4.6 22.7 L6.5 22.8 L5.0 23.9 L5.5 25.7 L4.0 24.7 L2.5 25.7 L3.0 23.9 L1.5 22.8 L3.4 22.7 Z" fill="#fff"></path><path d="M12.5 21.0 L13.1 22.7 L15.0 22.8 L13.5 23.9 L14.0 25.7 L12.5 24.7 L11.0 25.7 L11.5 23.9 L10.0 22.8 L11.9 22.7 Z" fill="#fff"></path><path d="M21.0 21.0 L21.6 22.7 L23.5 22.8 L22.0 23.9 L22.5 25.7 L21.0 24.7 L19.5 25.7 L20.0 23.9 L18.5 22.8 L20.4 22.7 Z" fill="#fff"></path><path d="M29.5 21.0 L30.1 22.7 L32.0 22.8 L30.5 23.9 L31.0 25.7 L29.5 24.7 L28.0 25.7 L28.5 23.9 L27.0 22.8 L28.9 22.7 Z" fill="#fff"></path><path d="M38.0 21.0 L38.6 22.7 L40.5 22.8 L39.0 23.9 L39.5 25.7 L38.0 24.7 L36.5 25.7 L37.0 23.9 L35.5 22.8 L37.4 22.7 Z" fill="#fff"></path><path d="M8.3 30.8 L8.9 32.5 L10.7 32.6 L9.3 33.7 L9.8 35.5 L8.3 34.5 L6.7 35.5 L7.2 33.7 L5.8 32.6 L7.6 32.5 Z" fill="#fff"></path><path d="M16.8 30.8 L17.4 32.5 L19.2 32.6 L17.8 33.7 L18.3 35.5 L16.8 34.5 L15.2 35.5 L15.7 33.7 L14.3 32.6 L16.1 32.5 Z" fill="#fff"></path><path d="M25.3 30.8 L25.9 32.5 L27.7 32.6 L26.3 33.7 L26.8 35.5 L25.3 34.5 L23.7 35.5 L24.2 33.7 L22.8 32.6 L24.6 32.5 Z" fill="#fff"></path><path d="M33.8 30.8 L34.4 32.5 L36.2 32.6 L34.8 33.7 L35.3 35.5 L33.8 34.5 L32.2 35.5 L32.7 33.7 L31.3 32.6 L33.1 32.5 Z" fill="#fff"></path><path d="M42.3 30.8 L42.9 32.5 L44.7 32.6 L43.3 33.7 L43.8 35.5 L42.3 34.5 L40.7 35.5 L41.2 33.7 L39.8 32.6 L41.6 32.5 Z" fill="#fff"></path><path d="M4.0 40.6 L4.6 42.3 L6.5 42.4 L5.0 43.5 L5.5 45.3 L4.0 44.3 L2.5 45.3 L3.0 43.5 L1.5 42.4 L3.4 42.3 Z" fill="#fff"></path><path d="M12.5 40.6 L13.1 42.3 L15.0 42.4 L13.5 43.5 L14.0 45.3 L12.5 44.3 L11.0 45.3 L11.5 43.5 L10.0 42.4 L11.9 42.3 Z" fill="#fff"></path><path d="M21.0 40.6 L21.6 42.3 L23.5 42.4 L22.0 43.5 L22.5 45.3 L21.0 44.3 L19.5 45.3 L20.0 43.5 L18.5 42.4 L20.4 42.3 Z" fill="#fff"></path><path d="M29.5 40.6 L30.1 42.3 L32.0 42.4 L30.5 43.5 L31.0 45.3 L29.5 44.3 L28.0 45.3 L28.5 43.5 L27.0 42.4 L28.9 42.3 Z" fill="#fff"></path><path d="M38.0 40.6 L38.6 42.3 L40.5 42.4 L39.0 43.5 L39.5 45.3 L38.0 44.3 L36.5 45.3 L37.0 43.5 L35.5 42.4 L37.4 42.3 Z" fill="#fff"></path></svg>