<svg xmlns="http://www.w3.org/2000/svg" viewBox="0 0 100 100"><defs><clipPath id="ca"><circle cx="50" cy="50" r="50"></circle></clipPath></defs><g clip-path="url(#ca)"><rect width="100" height="100" fill="#00247D"></rect><g transform="scale(0.5)"><rect width="100" height="100" fill="#012169"></rect><g stroke="#fff" stroke-width="15"><line x1="0" y1="0" x2="100" y2="100"></line><line x1="100" y1="0" x2="0" y2="100"></line></g><g stroke="#C8102E" stroke-width="6"><line x1="0" y1="0" x2="100" y2="100"></line><line x1="100" y1="0" x2="0" y2="100"></line></g><g stroke="#fff" stroke-width="26"><line x1="50" y1="0" x2="50" y2="100"></line><line x1="0" y1="50" x2="100" y2="50"></line></g><g stroke="#C8102E" stroke-width="15"><line x1="50" y1="0" x2="50" y2="100"></line><line x1="0" y1="50" x2="100" y2="50"></line></g></g><path d="M25.0 71.0 L26.6 76.6 L32.0 74.4 L28.7 79.2 L33.8 82.0 L28.0 82.4 L28.9 88.1 L25.0 83.8 L21.1 88.1 L22.0 82.4 L16.2 82.0 L21.3 79.2 L18.0 74.4 L23.4 76.6 Z" fill="#fff"></path><path d="M78.0 21.0 L79.2 24.3 L82.8 24.5 L80.0 26.6 L80.9 30.0 L78.0 28.1 L75.1 30.0 L76.0 26.6 L73.2 24.5 L76.8 24.3 Z" fill="#fff"></path><path d="M90.0 45.0 L91.2 48.3 L94.8 48.5 L92.0 50.6 L92.9 54.0 L90.0 52.1 L87.1 54.0 L88.0 50.6 L85.2 48.5 L88.8 48.3 Z" fill="#fff"></path><path d="M72.0 50.0 L73.2 53.3 L76.8 53.5 L74.0 55.6 L74.9 59.0 L72.0 57.1 L69.1 59.0 L70.0 55.6 L67.2 53.5 L70.8 53.3 Z" fill="#fff"></path><path d="M83.0 73.0 L84.2 76.3 L87.8 76.5 L85.0 78.6 L85.9 82.0 L83.0 80.1 L80.1 82.0 L81.0 78.6 L78.2 76.5 L81.8 76.3 Z" fill="#fff"></path><path d="M80.0 37.4 L80.6 39.1 L82.5 39.2 L81.0 40.3 L81.5 42.1 L80.0 41.1 L78.5 42.1 L79.0 40.3 L77.5 39.2 L79.4 39.1 Z" fill="#fff"></path></g></svg>