<?xml version="1.0"?>
<svg id="_レイヤー_1" data-name="レイヤー_1" xmlns="http://www.w3.org/2000/svg" version="1.1" viewBox="0 0 742.6 876.4">
  
  <defs></defs>
  <g>
    <path fill="#5E4716" d="M330.6,267.5c1.2-2.2,3.6-3.5,6-3.5h69.3c2.5,0,4.8,1.3,6,3.5l3.5,6h0c2.7,4.7,9.4,4.7,12.1,0l4.4-7.7c5.4-9.3,5.4-20.7,0-30l-15.9-27.5c-6.3-10.8-17.8-17.5-30.3-17.5h-28.9c-12.5,0-24.1,6.7-30.3,17.5l-15.9,27.5c-5.4,9.3-5.4,20.7,0,30l4.4,7.7c2.7,4.7,9.4,4.7,12.1,0h0s3.5-6,3.5-6Z"></path>
    <path fill="#5E4716" d="M287.8,477c.9,5.3,2.5,12.1,4.9,19.6s3.6,4.9,6.7,4.9h143.9c3,0,5.7-2,6.7-4.9,2.4-7.5,4.1-14.3,4.9-19.6.6-3.5.9-7.1,1-10.6,0-3.9-3-7.2-7-7.2h-155c-3.9,0-7.1,3.3-7,7.2s.4,7.1,1,10.6Z"></path>
    <path fill="#5E4716" d="M376.3,608.6c4.4-4.4,9.3-9.6,14.5-15.5s.8-11.6-5.2-11.6h-28.4c-6,0-9.2,7.1-5.2,11.6,5.2,5.9,10.1,11,14.5,15.5s7.2,2.8,9.9,0Z"></path>
    <path fill="#CB9A38" d="M310.4,537.1c4.9,8.7,9.9,16.1,14.7,22.7s3.4,2.9,5.6,2.9h81.2c2.2,0,4.3-1.1,5.6-2.9,4.8-6.6,9.8-14,14.7-22.7,1.2-2.2,2.4-4.3,3.5-6.5,2.4-4.7-.9-10.2-6.2-10.2h-116.5c-5.3,0-8.6,5.6-6.2,10.2s2.3,4.3,3.5,6.5Z"></path>
    <path fill="#CB9A38" d="M410,397.9h0c0,0-11,0-11,0h-66.4c0,0-19.3,0-19.3,0-2.4,0-4.7,1.3-6,3.3-5.6,9.1-10.7,19.1-14.4,29.7s1.8,9.3,6.6,9.3h143.7c4.8,0,8.2-4.7,6.6-9.3-3.7-10.5-8.8-20.6-14.4-29.7-1.3-2.1-3.5-3.3-6-3.3h-19.3Z"></path>
    <polygon fill="#CB9A38" points="332.6 398 343.6 398 399 398 410 398 410 397.9 332.6 397.9 332.6 398"></polygon>
    <path fill="#CB9A38" d="M420.4,380l.6-1h-1.4c.3.3.6.7.8,1Z"></path>
    <path fill="#CB9A38" d="M323.1,379h-1.4l.6,1c.3-.3.6-.7.8-1Z"></path>
    <polygon fill="#5E4716" points="426.7 331 410.5 303 410.5 303 426.7 331"></polygon>
    <path fill="#5E4716" d="M410.5,303l-7.2-12.5c-2.7-4.6-7.6-7.5-13-7.5h-38.1c-5.4,0-10.3,2.9-13,7.5l-7.2,12.5-11.8,20.5c-2.7,4.6-2.7,10.3,0,15l15.2,26.3,3.9,6.7c2.7,4.6,7.6,7.5,13,7.5h38.1c5.4,0,10.3-2.9,13-7.5l3.9-6.7,15.2-26.3c2.7-4.6,2.7-10.3,0-15l-11.8-20.5Z"></path>
    <polygon fill="#5E4716" points="335.4 364.8 335.4 364.8 343.6 379 335.4 364.8"></polygon>
  </g>
  <path fill="#5E4716" d="M406,193.8c.9-3,2.5-7.4,5.1-12.4,10.2-19.5,26.2-28,31.5-30.7,6.6-3.4,15.2-7.7,21.7-4.1.9.5,4.4,2.6,5,6.2.7,4.7-4,8.4-4.6,9-5.1,4-10.1,1.8-17.1,2.9-11.6,1.7-19.1,11.1-25.3,18.7-6.9,8.4-10.3,17-12,23.1-1.4-4.2-2.7-8.4-4.1-12.7Z"></path>
  <path fill="#5E4716" d="M336.6,193.8c-.9-3-2.5-7.4-5.1-12.4-10.2-19.5-26.2-28-31.5-30.7-6.6-3.4-15.2-7.7-21.7-4.1-.9.5-4.4,2.6-5,6.2-.7,4.7,4,8.4,4.6,9,5.1,4,10.1,1.8,17.1,2.9,11.6,1.7,19.1,11.1,25.3,18.7,6.9,8.4,10.3,17,12,23.1,1.4-4.2,2.7-8.4,4.1-12.7Z"></path>
  <g>
    <path fill="#E2BE6C" d="M.5,243.5c1.3-3.7,4.7-6,8.4-6.1,58.3-.7,112.7,4.5,161.5,15.5,39.6,8.9,61.1,18.3,79.6,34.9,5.2,4.6,8.7,8.5,15.6,16.3,4.1,4.5,9.1,10.2,16.5,18.2,9.4,10.2,18.8,20.3,28.3,30.1,3.4,3.6,6.8,7.1,10.3,10.6s1.9,2.3,2.3,3.8c1.1,3.9-.4,7.9-3.5,10l-79.4,54.7c-.4.2-.7.5-1.1.6-7.9,3.9-19.6,8-33.7,8-3.6,0-7.3-.3-11.2-.9-10-1.5-19.4-5.1-28.1-10.6-.1,0-.2-.2-.3-.2l-29.3-20.4c-1.2-.8-2.2-1.9-2.9-3.2-1.9-3.5-1.2-7.7,1.3-10.4,2.7-2.9,7.5-8.2,12.2-13.4l2.9-1.3,18.2-.2c1.7,0,2.7,2.1,1.5,3.3-2.6,2.9-5.8,6.4-8.9,9.8-1.9,2.2-3.9,4.3-5.8,6.4l20.9,14.5c6.5,4.1,13.7,6.7,21.1,7.9,14.9,2.3,27.3-2.2,33.7-5.2l70.1-48.2c-2.3-2.3-4.5-4.7-6.8-7.1-8.3-8.7-16.6-17.6-24.8-26.5-7.4-8.1-12.7-14-16.6-18.4-.4-.4-.7-.8-1-1.1-6-6.7-9-10-13.2-13.8-15.9-14.2-35.3-22.6-71.5-30.7-44.1-9.9-92.8-15-145.1-15.1,2.3,6.3,4.9,12.5,7.8,18.5,6.8,13.9,13.8,28.3,29,41.8,4,3.6,15.1,12.6,31.7,19.3,19.7,7.9,36.4,8.3,47.4,8.5l112.9-1.3c1.1,0,2.2.5,3,1.3l12.1,13.2c1.2,1.3.3,3.3-1.5,3.4l-126.5,1.4c0,0-.2,0-.3,0-11.6-.2-31.1-.6-53.9-9.8-18.6-7.4-31.2-17.3-37-22.5-17.7-15.8-26.3-33.3-33.1-47.3-5.1-10.5-9.4-21.5-12.6-32.6s-.6-3.8,0-5.7Z"></path>
    <path fill="#E2BE6C" d="M742.1,243.5c-1.3-3.7-4.7-6-8.4-6.1-58.3-.7-112.7,4.5-161.5,15.5-39.6,8.9-61.1,18.3-79.6,34.9-5.2,4.6-8.7,8.5-15.6,16.3s-9.1,10.2-16.5,18.2c-9.4,10.2-18.8,20.3-28.3,30.1-3.4,3.6-6.8,7.1-10.3,10.6s-1.9,2.3-2.3,3.8c-1.1,3.9.4,7.9,3.5,10l79.4,54.7c.4.2.7.5,1.1.6,7.9,3.9,19.6,8,33.7,8,3.6,0,7.3-.3,11.2-.9,10-1.5,19.4-5.1,28.1-10.6.1,0,.2-.2.3-.2l29.3-20.4c1.2-.8,2.2-1.9,2.9-3.2,1.9-3.5,1.2-7.7-1.3-10.4-2.7-2.9-7.5-8.2-12.2-13.4l-2.9-1.3-18.2-.2c-1.7,0-2.7,2.1-1.5,3.3,2.6,2.9,5.8,6.4,8.9,9.8,1.9,2.2,3.9,4.3,5.8,6.4l-20.9,14.5c-6.5,4.1-13.7,6.7-21.1,7.9-14.9,2.3-27.3-2.2-33.7-5.2l-70.1-48.2c2.3-2.3,4.5-4.7,6.8-7.1,8.3-8.7,16.6-17.6,24.8-26.5,7.4-8.1,12.7-14,16.6-18.4.4-.4.7-.8,1-1.1,6-6.7,9-10,13.2-13.8,15.9-14.2,35.3-22.6,71.5-30.7,44.1-9.9,92.8-15,145.1-15.1-2.3,6.3-4.9,12.5-7.8,18.5-6.8,13.9-13.8,28.3-29,41.8-4,3.6-15.1,12.6-31.7,19.3-19.7,7.9-36.4,8.3-47.4,8.5l-112.9-1.3c-1.1,0-2.2.5-3,1.3l-12.1,13.2c-1.2,1.3-.3,3.3,1.5,3.4l126.5,1.4c0,0,.2,0,.3,0,11.6-.2,31.1-.6,53.9-9.8,18.6-7.4,31.2-17.3,37-22.5,17.7-15.8,26.3-33.3,33.1-47.3,5.1-10.5,9.4-21.5,12.6-32.6s.6-3.8,0-5.7Z"></path>
  </g>
  <g>
    <path fill="#8A9469" d="M36.3,365.9c-3,3.3-4.3,7.9-4.6,9.5-.9,3.9-.5,7.3-.2,9.4-2.1-.2-5.7-.3-9.7,1.1-1.5.5-5.7,2.1-8.6,5.2-6,6.6-5.4,16.9,1.5,23.2,8.2,7.5,18.2,8.5,28,9.1,6.4.3,16.5.3,23.6.2l-19.7-25.1,26.6,17.4c-.5-7.1-1.4-17.1-2.2-23.4-1.4-9.6-3.3-19.6-11.5-27.1s-17-6.2-23.2.5Z"></path>
    <path fill="#8A9469" d="M41.4,480.5c4.3,1,9-.3,10.5-.8,3.9-1.2,6.6-3.2,8.2-4.5.9,1.9,2.6,5.1,5.8,7.9,1.2,1.1,4.7,3.9,8.8,4.8,8.7,1.9,17.3-3.8,19.3-12.9,2.4-10.8-1.7-20.1-6.1-28.7-2.9-5.7-8-14.4-11.6-20.5l-11.8,29.6,1.8-31.8c-5.9,4-14.2,9.7-19.2,13.7-7.7,6-15.3,12.7-17.7,23.5-2,8.9,3.1,17.9,12,19.8Z"></path>
    <path fill="#8A9469" d="M138.1,418.8c-1.3-4.2-4.7-7.6-5.9-8.7-3-2.7-6.1-4.1-8-4.8,1.2-1.7,3.1-4.8,3.9-9,.3-1.6,1-6-.3-10-2.7-8.5-11.9-13.1-20.8-10.3s-16.5,11.5-21.8,19.7c-3.5,5.4-8.5,14.1-12,20.3l31.6-4.6-28.4,14.4c6.4,3.1,15.5,7.4,21.4,9.8,9,3.6,18.6,6.9,29.2,3.6,8.7-2.8,13.9-11.6,11.2-20.3Z"></path>
  </g>
  <g>
    <path fill="#8A9469" d="M567.3,512.9c-3,3.3-4.3,7.9-4.6,9.5-.9,3.9-.5,7.3-.2,9.4-2.1-.2-5.7-.3-9.7,1.1-1.5.5-5.7,2.1-8.6,5.2-6,6.6-5.4,16.9,1.5,23.2s18.2,8.6,28,9.1c6.4.3,16.5.3,23.6.2l-19.7-25.1,26.6,17.4c-.5-7.1-1.4-17.1-2.2-23.4-1.4-9.6-3.3-19.6-11.5-27.1-6.8-6.2-17-6.2-23.2.5Z"></path>
    <path fill="#8A9469" d="M572.3,627.5c4.3,1,9-.3,10.5-.8,3.9-1.2,6.6-3.2,8.2-4.5.9,1.9,2.6,5.1,5.8,7.9,1.2,1.1,4.7,3.9,8.8,4.8,8.7,1.9,17.3-3.8,19.3-12.9,2.4-10.8-1.7-20.1-6.1-28.7-2.9-5.7-8-14.4-11.6-20.5l-11.8,29.6,1.8-31.8c-5.9,4-14.2,9.7-19.2,13.6-7.7,6-15.3,12.7-17.7,23.5-2,8.9,3.1,17.9,12,19.8Z"></path>
    <path fill="#8A9469" d="M669.1,565.8c-1.3-4.2-4.7-7.6-5.9-8.7-3-2.7-6.1-4.1-8-4.8,1.2-1.7,3.1-4.8,3.9-9,.3-1.6,1-6-.2-10-2.7-8.5-11.9-13.1-20.8-10.3-10.5,3.3-16.5,11.5-21.8,19.7-3.5,5.4-8.5,14.1-12,20.3l31.6-4.5-28.4,14.3c6.4,3.1,15.5,7.4,21.4,9.8,9,3.6,18.6,6.9,29.2,3.6,8.7-2.8,13.9-11.6,11.2-20.3Z"></path>
  </g>
  <g>
    <path fill="#8A9469" d="M634.3,397.2c-.6,3.2.5,6.6.9,7.7,1,2.8,2.6,4.7,3.6,5.9-1.4.7-3.6,2.1-5.6,4.5-.7.9-2.7,3.6-3.2,6.7-1.1,6.5,3.4,12.6,10.1,13.8,8,1.4,14.7-1.9,20.9-5.5,4.1-2.3,10.3-6.3,14.7-9.2l-22.2-7.7,23.4.2c-3.1-4.2-7.6-10.1-10.7-13.6-4.7-5.4-9.8-10.8-17.9-12.2-6.6-1.2-13,2.9-14.2,9.5Z"></path>
    <path fill="#8A9469" d="M683,466.2c3.1-1.1,5.5-3.7,6.2-4.7,1.9-2.3,2.8-4.6,3.3-6.1,1.3.8,3.6,2.1,6.7,2.6,1.2.2,4.5.5,7.4-.5,6.2-2.3,9.2-9.2,6.9-15.7-2.8-7.6-9-11.8-15.2-15.4-4.1-2.4-10.7-5.8-15.3-8.1l4.4,23.1-11.5-20.4c-2.1,4.8-4.9,11.7-6.5,16.1-2.4,6.8-4.5,13.9-1.7,21.6,2.3,6.3,9,9.8,15.3,7.5Z"></path>
    <path fill="#8A9469" d="M718.4,389.6c-2.5-2.1-6-2.9-7.1-3.1-2.9-.5-5.4-.1-6.9.2,0-1.6,0-4.2-1.1-7.1-.4-1.1-1.8-4.1-4.1-6.1-5-4.2-12.6-3.4-17,1.9s-5.7,13.7-5.7,20.9c0,4.7.3,12.1.6,17.3l17.8-15.4-11.9,20.2c5.2-.6,12.6-1.6,17.2-2.4,7-1.3,14.3-3.1,19.5-9.4,4.3-5.2,4-12.7-1.1-17Z"></path>
  </g>
  <g>
    <path fill="#8A9469" d="M433.4,31.1c-2.3-3.3-6.2-5.2-7.5-5.9-3.3-1.5-6.3-1.9-8.2-1.9.6-1.8,1.3-4.9.9-8.8-.2-1.5-.8-5.4-3-8.5-4.6-6.5-13.8-8-20.7-3.1s-11,14.4-13.3,22.9c-1.5,5.5-3.4,14.4-4.7,20.7l25.8-12.6-20.4,20.1c6.3.9,15.3,2.1,21,2.5,8.7.6,17.9.8,26-4.9,6.7-4.8,8.7-13.8,4-20.5Z"></path>
    <path fill="#8A9469" d="M331.7,13.7c-1.7,3.6-1.5,8-1.3,9.4.3,3.6,1.5,6.4,2.4,8.1-1.9.4-4.9,1.3-8,3.6-1.2.9-4.3,3.4-5.9,6.8-3.4,7.3,0,15.9,7.6,19.5s18,2.3,26.5,0c5.6-1.5,14.2-4.3,20.3-6.3l-23.8-16.1,27.6,7.6c-2.4-5.9-5.9-14.3-8.4-19.5-3.8-7.9-8.2-15.9-17.3-20-7.5-3.4-16.3-.6-19.7,6.8Z"></path>
    <path fill="#8A9469" d="M367.5,110.5c4-.4,7.6-2.7,8.8-3.5,3-2.1,4.8-4.5,5.8-6.1,1.3,1.4,3.6,3.6,7.2,5.2,1.3.6,5.1,2,8.9,1.7,8-.7,13.8-8,13-16.3-.9-9.9-7-16.7-13.2-22.9-4.1-4.1-10.8-10.2-15.6-14.4l-2,28.6-7.2-27.7c-4,5-9.5,12.2-12.7,17-4.9,7.2-9.6,15.1-8.7,25s7.6,14.4,15.7,13.7Z"></path>
  </g>
  <g>
    <path fill="#8A9469" d="M553.3,70.3c-4.2,1.5-7.4,5-8.5,6.3-2.6,3.1-3.9,6.2-4.5,8.2-1.8-1.2-4.9-2.9-9.1-3.6-1.6-.3-6.1-.8-10,.7-8.4,3-12.6,12.4-9.4,21.2s12.2,16,20.6,21c5.5,3.2,14.4,7.9,20.8,11.1l-5.8-31.3,15.5,27.8c2.8-6.5,6.8-15.8,8.9-21.8,3.3-9.2,6.2-18.9,2.4-29.3s-12.2-13.4-20.7-10.3Z"></path>
    <path fill="#8A9469" d="M504.6,174.1c3.4,2.9,8.1,3.9,9.7,4.2,4,.7,7.3.2,9.4-.2-.1,2.1,0,5.7,1.5,9.7.6,1.5,2.4,5.6,5.6,8.3,6.8,5.7,17.1,4.7,23.1-2.4,7.1-8.5,7.8-18.6,7.9-28.3,0-6.4-.4-16.5-.7-23.6l-24.2,20.7,16.3-27.3c-7.1.8-17.1,2.1-23.3,3.2-9.6,1.7-19.4,4.1-26.6,12.6-5.9,7-5.5,17.3,1.4,23.1Z"></path>
    <path fill="#8A9469" d="M618.9,164.4c.8-4.4-.6-9-1.2-10.5-1.4-3.8-3.5-6.5-4.9-8,1.9-1,4.9-2.8,7.6-6.1,1-1.3,3.7-4.9,4.4-9,1.6-8.8-4.5-17.1-13.7-18.8s-20,2.5-28.5,7.3c-5.6,3.1-14.1,8.5-20,12.4l30.1,10.6-31.8-.5c4.2,5.7,10.3,13.8,14.4,18.6,6.3,7.4,13.3,14.8,24.2,16.7,9,1.6,17.7-3.9,19.3-12.8Z"></path>
  </g>
  <g>
    <path fill="#8A9469" d="M323.9,608c-1.1-4.3-4.2-7.9-5.3-9.1-2.8-2.9-5.8-4.5-7.7-5.3,1.3-1.6,3.4-4.6,4.5-8.7.4-1.6,1.4-6,.4-10-2.1-8.7-11.1-13.9-20.1-11.6s-17.2,10.4-23,18.2c-3.8,5.1-9.4,13.5-13.3,19.5l31.8-2.5-29.3,12.5c6.2,3.5,15,8.4,20.7,11.1,8.8,4.2,18.1,8.1,28.9,5.5s14.6-10.7,12.4-19.5Z"></path>
    <path fill="#8A9469" d="M189,606.3c1.1,4.3,4.3,7.9,5.4,9.1,2.8,2.9,5.8,4.5,7.7,5.3-1.3,1.6-3.4,4.6-4.5,8.7-.4,1.6-1.4,6-.4,10,2.2,8.6,11.1,13.8,20.2,11.5s17.2-10.5,23-18.3c3.8-5.1,9.3-13.6,13.2-19.6l-31.8,2.7,29.2-12.6c-6.2-3.5-15-8.3-20.8-11.1-8.8-4.2-18.2-8-28.9-5.3-8.9,2.2-14.6,10.8-12.4,19.6Z"></path>
    <path fill="#8A9469" d="M257.4,539.7c-4.3,1.1-7.9,4.2-9.1,5.3-2.9,2.8-4.5,5.8-5.3,7.7-1.6-1.3-4.6-3.4-8.7-4.5-1.6-.4-6-1.4-10-.4-8.7,2.1-13.9,11.1-11.6,20.1,2.6,10.7,10.4,17.2,18.2,23,5.1,3.8,13.5,9.4,19.5,13.3l-2.5-31.8,12.5,29.3c3.5-6.2,8.4-15,11.1-20.7,4.2-8.8,8.1-18.1,5.5-28.9s-10.7-14.6-19.5-12.4Z"></path>
    <path fill="#8A9469" d="M255.8,674.6c4.3-1.1,7.9-4.3,9.1-5.4,2.9-2.8,4.5-5.8,5.3-7.7,1.6,1.3,4.6,3.4,8.7,4.5,1.6.4,6,1.4,10,.4,8.6-2.2,13.8-11.1,11.5-20.2-2.7-10.7-10.5-17.2-18.3-23-5.1-3.8-13.6-9.3-19.6-13.2l2.7,31.8-12.6-29.2c-3.5,6.2-8.3,15-11.1,20.8-4.2,8.8-8,18.2-5.3,28.9,2.2,8.9,10.8,14.6,19.6,12.4Z"></path>
  </g>
  <g>
    <path fill="#8A9469" d="M153,49.3c-3.2,3.1-4.6,7.7-5,9.3-1.1,3.9-.9,7.3-.6,9.3-2.1-.3-5.7-.5-9.8.6-1.6.4-5.8,1.9-8.8,4.8-6.3,6.3-6.2,16.6.4,23.2,7.8,7.8,17.8,9.4,27.5,10.3,6.4.6,16.4,1.1,23.5,1.3l-18.5-25.9,25.8,18.6c-.2-7.1-.6-17.2-1.1-23.5-.9-9.7-2.4-19.7-10.2-27.6s-16.7-7-23.2-.6Z"></path>
    <path fill="#8A9469" d="M152.8,164c4.3,1.2,9,.1,10.6-.3,3.9-1,6.7-2.9,8.4-4.2.8,2,2.4,5.2,5.4,8.2,1.2,1.1,4.5,4.1,8.6,5.2,8.6,2.3,17.5-3,19.9-12,2.9-10.7-.8-20.1-4.8-29-2.6-5.8-7.3-14.8-10.6-21l-13.2,29,3.2-31.7c-6.1,3.7-14.6,9.1-19.8,12.7-7.9,5.6-15.9,11.9-18.8,22.6-2.4,8.8,2.3,18,11.1,20.4Z"></path>
    <path fill="#8A9469" d="M252.3,106.9c-1.1-4.3-4.4-7.9-5.5-9-2.8-2.9-5.9-4.4-7.8-5.2,1.3-1.7,3.3-4.6,4.3-8.8.4-1.6,1.3-6,.2-10-2.3-8.6-11.3-13.6-20.3-11.3s-17,10.8-22.7,18.7c-3.7,5.2-9.2,13.7-12.9,19.7l31.7-3.1-29,13c6.3,3.4,15.2,8.1,20.9,10.8,8.8,4.1,18.3,7.8,29,5,8.9-2.3,14.4-11,12.1-19.8Z"></path>
  </g>
  <g>
    <path fill="#8A9469" d="M294.7,50.4c-2.8,1-4.9,3.3-5.6,4.2-1.7,2-2.5,4.1-2.9,5.4-1.2-.8-3.2-1.9-6-2.3-1.1-.2-4-.5-6.6.5-5.5,2-8.3,8.2-6.2,14,2.5,6.8,8.1,10.5,13.6,13.8,3.6,2.1,9.5,5.2,13.7,7.3l-3.9-20.6,10.3,18.3c1.9-4.3,4.4-10.4,5.8-14.4,2.1-6.1,4-12.5,1.5-19.3s-8.1-8.8-13.7-6.7Z"></path>
    <path fill="#8A9469" d="M262.9,119c2.2,1.9,5.3,2.6,6.4,2.7,2.6.5,4.8.1,6.2-.2,0,1.4,0,3.7,1,6.4.4,1,1.6,3.7,3.7,5.5,4.5,3.8,11.3,3,15.2-1.7s5.1-12.3,5.1-18.7c0-4.2-.3-10.9-.6-15.5l-15.9,13.7,10.7-18.1c-4.7.5-11.2,1.4-15.4,2.2-6.3,1.2-12.8,2.8-17.5,8.4s-3.6,11.4,1,15.2Z"></path>
    <path fill="#8A9469" d="M338.2,112.2c.5-2.9-.5-5.9-.8-6.9-.9-2.5-2.3-4.2-3.2-5.3,1.2-.6,3.2-1.9,5-4.1.7-.8,2.4-3.2,2.9-6,1-5.8-3-11.3-9.1-12.3s-13.2,1.7-18.7,4.9c-3.7,2.1-9.3,5.7-13.2,8.3l19.9,6.9-21-.2c2.8,3.8,6.8,9,9.6,12.2,4.2,4.9,8.8,9.7,16,11s11.7-2.6,12.7-8.5Z"></path>
  </g>
  <g>
    <path fill="#8A9469" d="M134.2,162.6c-2.7.2-5.2,1.7-6,2.3-2.1,1.4-3.3,3-4,4.1-.8-1-2.4-2.5-4.8-3.6-.9-.4-3.4-1.5-6-1.3-5.4.4-9.5,5.2-9.1,10.9.5,6.7,4.5,11.5,8.6,15.8,2.7,2.8,7.2,7.1,10.4,10l1.8-19.4,4.5,18.9c2.8-3.4,6.6-8.2,8.9-11.3,3.5-4.8,6.8-10.1,6.3-16.8-.4-5.6-4.9-9.9-10.5-9.5Z"></path>
    <path fill="#8A9469" d="M88.2,215.5c1.5,2.3,4.1,3.7,5,4.1,2.2,1.1,4.3,1.4,5.5,1.4-.4,1.2-1,3.3-.7,5.9,0,1,.5,3.7,1.9,5.8,3,4.5,9.3,5.6,14,2.4s7.7-9.6,9.4-15.3c1.1-3.7,2.5-9.7,3.5-14l-17.7,8.1,14.2-13.3c-4.3-.7-10.4-1.6-14.2-2-5.9-.6-12.1-.8-17.7,2.9s-6.1,9.2-3,13.8Z"></path>
    <path fill="#8A9469" d="M157,228.9c1.2-2.4,1.1-5.4,1.1-6.4-.2-2.5-1-4.4-1.5-5.5,1.3-.2,3.4-.8,5.5-2.3.8-.6,3-2.2,4.1-4.6,2.4-4.9.2-10.8-4.9-13.3s-12.2-1.8-18-.5c-3.8.9-9.7,2.7-13.9,4l15.9,11.3-18.6-5.6c1.5,4.1,3.8,9.8,5.4,13.3,2.5,5.4,5.3,10.9,11.4,13.9s11.1.7,13.5-4.3Z"></path>
  </g>
  <g>
    <path fill="#8A9469" d="M147.4,517.7c-2.3,1.4-3.8,3.9-4.3,4.8-1.2,2.2-1.5,4.2-1.7,5.5-1.2-.5-3.3-1.1-5.9-1-1,0-3.7.3-5.9,1.6-4.6,2.9-6,9-3,13.9,3.5,5.8,9.3,8.1,14.9,10,3.7,1.3,9.6,2.9,13.8,4.1l-7.4-18,12.7,14.7c.9-4.3,2.1-10.3,2.6-14.1.8-5.9,1.3-12.1-2.2-17.8-2.9-4.8-9-6.5-13.7-3.6Z"></path>
    <path fill="#8A9469" d="M131.1,585.9c2.4,1.3,5.3,1.3,6.3,1.3,2.5,0,4.4-.8,5.6-1.3.2,1.3.7,3.4,2.1,5.6.5.8,2.1,3.1,4.4,4.3,4.8,2.6,10.8.7,13.5-4.3,3.2-5.9,2.4-12.1,1.2-17.9-.8-3.8-2.3-9.8-3.4-14l-11.9,15.4,6.4-18.4c-4.1,1.4-10,3.3-13.6,4.8-5.5,2.2-11.1,4.9-14.3,10.8-2.7,4.9-1.1,11,3.7,13.7Z"></path>
    <path fill="#8A9469" d="M198.3,565.9c0-2.7-1.5-5.3-2-6.1-1.3-2.1-2.9-3.4-3.9-4.2,1-.8,2.6-2.3,3.8-4.6.5-.9,1.6-3.4,1.5-5.9-.1-5.4-4.8-9.7-10.5-9.5-6.8.2-11.6,4-16.1,7.9-2.9,2.6-7.4,6.9-10.4,9.9l19.3,2.6-19.1,3.7c3.2,2.9,7.9,6.9,10.9,9.3,4.7,3.7,9.8,7.2,16.5,7s10.1-4.5,10-10.1Z"></path>
  </g>
  <g>
    <path fill="#8A9469" d="M651.3,144.5c-2.7.2-5.2,1.7-6,2.3-2.1,1.4-3.3,3-4,4.1-.8-1-2.4-2.5-4.8-3.6-.9-.4-3.4-1.5-6-1.3-5.4.4-9.5,5.2-9.1,10.9.5,6.7,4.5,11.5,8.6,15.8,2.7,2.8,7.2,7.1,10.4,10l1.8-19.4,4.5,18.9c2.8-3.4,6.6-8.2,8.9-11.3,3.5-4.8,6.8-10.1,6.3-16.8-.4-5.6-4.9-9.9-10.5-9.5Z"></path>
    <path fill="#8A9469" d="M605.3,197.4c1.5,2.3,4.1,3.7,5,4.1,2.2,1.1,4.3,1.4,5.5,1.4-.4,1.2-1,3.3-.7,5.9,0,1,.5,3.7,1.9,5.8,3,4.5,9.3,5.6,14,2.4s7.7-9.6,9.4-15.3c1.1-3.7,2.5-9.7,3.5-14l-17.7,8.1,14.2-13.3c-4.3-.7-10.4-1.6-14.2-2-5.9-.6-12.1-.8-17.7,2.9s-6.1,9.2-3,13.8Z"></path>
    <path fill="#8A9469" d="M674.2,210.7c1.2-2.4,1.1-5.4,1.1-6.4-.2-2.5-1-4.4-1.5-5.5,1.3-.2,3.4-.8,5.5-2.3.8-.6,3-2.2,4.1-4.6,2.4-4.9.2-10.8-4.9-13.3s-12.2-1.8-18-.5c-3.8.9-9.7,2.7-13.9,4l15.9,11.3-18.6-5.6c1.5,4.1,3.8,9.8,5.4,13.3,2.5,5.4,5.3,10.9,11.4,13.9s11.1.7,13.5-4.3Z"></path>
  </g>
  <g>
    <path fill="#8A9469" d="M632.5,441c-2.7.2-5.2,1.7-6,2.3-2.1,1.4-3.3,3-4,4.1-.8-1-2.4-2.5-4.8-3.6-.9-.4-3.4-1.5-6-1.3-5.4.4-9.5,5.2-9.1,10.9.5,6.7,4.5,11.5,8.6,15.8,2.7,2.8,7.2,7.1,10.4,10l1.8-19.4,4.5,18.9c2.8-3.4,6.6-8.2,8.9-11.3,3.5-4.8,6.8-10.1,6.3-16.8-.4-5.6-4.9-9.9-10.5-9.5Z"></path>
    <path fill="#8A9469" d="M586.5,493.9c1.5,2.3,4.1,3.7,5,4.1,2.2,1.1,4.3,1.4,5.5,1.4-.4,1.2-1,3.3-.7,5.9,0,1,.5,3.7,1.9,5.8,3,4.5,9.3,5.6,14,2.4s7.7-9.6,9.4-15.3c1.1-3.7,2.5-9.7,3.5-14l-17.7,8.1,14.2-13.3c-4.3-.7-10.4-1.6-14.2-2-5.9-.6-12.1-.8-17.7,2.9s-6.1,9.2-3,13.8Z"></path>
    <path fill="#8A9469" d="M655.3,507.3c1.2-2.4,1.1-5.4,1.1-6.4-.2-2.5-1-4.4-1.5-5.5,1.3-.2,3.4-.8,5.5-2.3.8-.6,3-2.2,4.1-4.6,2.4-4.9.2-10.8-4.9-13.3s-12.2-1.8-18-.5c-3.8.9-9.7,2.7-13.9,4l15.9,11.3-18.6-5.6c1.5,4.1,3.8,9.8,5.4,13.3,2.5,5.4,5.3,10.9,11.4,13.9s11.1.7,13.5-4.3Z"></path>
  </g>
  <g>
    <path fill="#8A9469" d="M433,603.7c-2.7.2-5.2,1.7-6,2.3-2.1,1.4-3.3,3-4,4.1-.8-1-2.4-2.5-4.8-3.6-.9-.4-3.4-1.5-6-1.3-5.4.4-9.5,5.2-9.1,10.9.5,6.7,4.5,11.5,8.6,15.8,2.7,2.8,7.2,7.1,10.4,10l1.8-19.4,4.5,18.9c2.8-3.4,6.6-8.2,8.9-11.3,3.5-4.8,6.8-10.1,6.3-16.8-.4-5.6-4.9-9.9-10.5-9.5Z"></path>
    <path fill="#8A9469" d="M387,656.6c1.5,2.3,4.1,3.7,5,4.1,2.2,1.1,4.3,1.4,5.5,1.4-.4,1.2-1,3.3-.7,5.9,0,1,.5,3.7,1.9,5.8,3,4.5,9.3,5.6,14,2.4s7.7-9.6,9.4-15.3c1.1-3.7,2.5-9.7,3.5-14l-17.7,8.1,14.2-13.3c-4.3-.7-10.4-1.6-14.2-2-5.9-.6-12.1-.8-17.7,2.9s-6.1,9.2-3,13.8Z"></path>
    <path fill="#8A9469" d="M455.8,669.9c1.2-2.4,1.1-5.4,1.1-6.4-.2-2.5-1-4.4-1.5-5.5,1.3-.2,3.4-.8,5.5-2.3.8-.6,3-2.2,4.1-4.6,2.4-4.9.2-10.8-4.9-13.3-6.1-3-12.2-1.8-18-.5-3.8.9-9.7,2.7-13.9,4l15.9,11.3-18.6-5.6c1.5,4.1,3.8,9.8,5.4,13.3,2.5,5.4,5.3,10.9,11.4,13.9s11.1.7,13.5-4.3Z"></path>
  </g>
  <g>
    <path fill="#AEB68C" d="M504.8,102.6h-9.5c.3,1.6.6,2.7.4,4s-1.5,2.4-3.3,2.5c-9.7.6-17.8-7.7-17.5-17.1,5.7,1.9,10.7,2.9,15.6.8,8,4.3,17.7,2.5,17.2,7s-1.3,2.9-3,2.9Z"></path>
    <path fill="#AEB68C" d="M487.1,54c3.1,10.6-1,20.7-10.7,28.1.6-6.5-.5-11.5-1.7-17.6-.9-4.5,3.5-10.5,6.7-13.2s5.1.5,5.7,2.7Z"></path>
    <path fill="#AEB68C" d="M459,67.5c-1.4,5.4-.8,10.6,1.9,15.2-6.9-1.1-11.1-5.7-13.3-10.4s-2.7-11.7.6-17.2c1-1.6,2.4-3,4.5-2.5,2.7,4.7,4.7,9.6,6.4,14.9Z"></path>
    <path fill="#AEB68C" d="M470.6,87.8c-3.7-.4-5.7-2.9-7.3-6-3.4-6.2-3.1-14.6,2.5-19.4s13.9,11.1,4.8,25.4Z"></path>
    <path fill="#AEB68C" d="M458.7,28.7c2.1,9-1.9,14.5-3.7,21.6-1.8-1.1-3.1-1.7-4.5-1.4s-2.1,1.6-3.8,3.3c-3.3-9.1-.9-18.8,6.9-24.3s4.6-1.2,5.1.7Z"></path>
    <path fill="#AEB68C" d="M444.9,55.8c-2.8,5.7-2.1,11.1-.4,17.7-14.6-7.9-14.2-29.6-7.6-30.6s3.4,1,4.2,2.9l3.8,10Z"></path>
    <path fill="#AEB68C" d="M519.7,77.7c2.7,5.5-10.7,18.6-25.8,12.7,4.7-2.2,7.8-5.8,8.8-11l12.7-3.3c1.7-.4,3.7.4,4.3,1.7Z"></path>
    <path fill="#AEB68C" d="M501.1,72.1c-2.4-1.3-4.6-1.4-7-.6l-5.5,1.8c1-10.8,13.6-24.2,17.6-20.4,3.5,3.2.6,13.8-5.1,19.2Z"></path>
    <path fill="#AEB68C" d="M500.6,77.6c-1.9,10.4-15.6,15.7-26,10.8l10.8-10.4c2.4-2.3,6.5-2.1,9.4-3.2,1.4-.7,2.6-1,3.8-.6s2.3,1.8,2,3.4Z"></path>
    <path fill="#AEB68C" d="M457.9,85.9c-14.3,9.1-28.8-2.4-27.4-7.4s12.8-3,16.9.2,5.9,6,10.5,7.2Z"></path>
    <path fill="#AEB68C" d="M469.4,59.3c-.7-.4-2.2-1.3-3.4-.8-2.3,1-3.5,2.9-5.4,4.8l-2.5-8c-1.5-9,6.4-18.8,11.8-16.4s1.6,10.5-.4,16.9-.2,1.7,0,3.6Z"></path>
    <path fill="#AEB68C" d="M520.6,50.8c6.9,3-.2,22.2-17,24.3,3.8-5.7,6.1-10.3,7.1-17.1s6.6-8.7,9.9-7.2Z"></path>
    <path fill="#AEB68C" d="M509.4,53.8c-.8-2-1.6-3.7-2.9-4.4s-3.6-.1-6.2,1.4c-1.5-7.3,1.9-19.7,6.7-19.4s6.8,14,2.5,22.4Z"></path>
    <path fill="#AEB68C" d="M481.4,47.4c-4.4,2.2-5.7,7.9-8.6,11.9,0-10.3,1.5-22.8,10.8-28.5,3.6,3.6,3.4,9.5,2.1,13.7s-2.3,1.9-4.3,2.9Z"></path>
    <path fill="#AEB68C" d="M445.9,98.7c-1.6-3.3,3.4-6.5,6.1-7.5l10-3.7c1.9.6,3.6,1.9,5.2,3.2-3.3,7.3-13.5,12.4-21.3,7.9Z"></path>
    <path fill="#AEB68C" d="M473.4,37.5c-1.6-.9-3.4-3.1-5.8-2.8s-3.7,2.7-5.7,3.8c0-8.3,7.5-14.9,15.6-15.8,2.7,5.3.6,10.4-4,14.8Z"></path>
    <path fill="#AEB68C" d="M497.5,41.9c-1.6-1.4-2.5-2.2-4-2s-2.1,1.4-4,3c0-3.9-.6-6.7-1.6-10.2s3.5-7,6.3-6.9,5.2,9.2,3.3,16.2Z"></path>
    <path fill="#AEB68C" d="M490.4,60.2l-2-9.9c-.5-2.5,3.1-8.5,6-7.2,4.4,1.9,2.5,11.8-4,17.2Z"></path>
  </g>
  <g>
    <path fill="#AEB68C" d="M164.5,518.4l-7.7,5.5c1.3,1.2,2.1,1.9,2.7,3s.2,2.8-1.2,4c-7.5,6.2-18.9,4.4-24.2-3.4,5.7-1.8,10.3-3.9,13.1-8.7,9-1.3,15.8-8.5,18-4.6s.7,3.1-.7,4.1Z"></path>
    <path fill="#AEB68C" d="M121.5,489.8c8.8,6.7,11.5,17.3,8,29-3.3-5.6-7.2-9-11.8-13.2-3.4-3.1-3.4-10.5-2.4-14.6s4.4-2.6,6.2-1.2Z"></path>
    <path fill="#AEB68C" d="M106.8,517.3c2.1,5.2,5.7,9,10.5,11.1-6.2,3.2-12.3,2-16.9-.5-5.7-3-9.1-7.9-9.8-14.2s.2-3.8,2.2-4.7c4.9,2.2,9.4,4.9,14,8.2Z"></path>
    <path fill="#AEB68C" d="M128.2,526.8c-3.2,1.9-6.3,1-9.4-.5-6.4-3-11.2-9.9-9.4-17.1s17.8.7,18.9,17.6Z"></path>
    <path fill="#AEB68C" d="M83.6,486.2c7,6,7,12.8,9.8,19.7-2.1.2-3.5.4-4.4,1.6s-.8,2.5-1.1,4.9c-8-5.4-11.8-14.6-8.8-23.7.5-1.6,3-3.7,4.6-2.4Z"></path>
    <path fill="#AEB68C" d="M88.5,516.2c1.1,6.3,4.9,10.2,10.2,14.5-16.4,2.3-29-15.4-24.3-20.2,1.2-1.2,3.4-1.2,5.1-.1l9,5.8Z"></path>
    <path fill="#AEB68C" d="M161.8,489.6c5.4,2.8,2.4,21.4-13.3,25.5,2.5-4.6,2.8-9.3.6-14.1l8.2-10.2c1.1-1.3,3.2-1.9,4.5-1.2Z"></path>
    <path fill="#AEB68C" d="M143.4,496c-2.7.3-4.5,1.6-6,3.7l-3.3,4.7c-5.6-9.3-3.4-27.5,2.1-26.9s8.6,10.8,7.2,18.5Z"></path>
    <path fill="#AEB68C" d="M146.3,500.8c4.6,9.5-3.3,21.9-14.6,24.1l2.6-14.8c.6-3.2,4-5.6,5.7-8.1.7-1.4,1.5-2.3,2.7-2.7s2.9,0,3.6,1.5Z"></path>
    <path fill="#AEB68C" d="M116.7,532.8c-6.2,15.8-24.6,15.1-26.4,10.3s8.5-10,13.7-9.9c4.3,0,8.3,1.3,12.7-.4Z"></path>
    <path fill="#AEB68C" d="M110.3,504.5c-.8,0-2.6.3-3.2,1.3-1.3,2.2-1.1,4.4-1.6,7.1l-6.8-5c-6.5-6.4-6-18.9-.2-20.2s7.5,7.5,9.7,13.9.9,1.4,2.1,2.9Z"></path>
    <path fill="#AEB68C" d="M146.5,467.4c7.3-1.7,13,18,.8,29.7-.3-6.9-1.2-11.9-4.4-18-1.6-3,.2-10.9,3.7-11.7Z"></path>
    <path fill="#AEB68C" d="M139.3,476.4c-1.8-1.2-3.5-2-5-1.8s-2.9,2-4.2,4.9c-5.5-5-10.2-17-6-19.6,3.9-2.5,13.8,7.3,15.2,16.6Z"></path>
    <path fill="#AEB68C" d="M113,487.9c-2.2,4.4,0,9.8.2,14.7-6-8.4-12.3-19.2-8.2-29.3,5,.8,8.3,5.6,9.8,9.8s-.8,2.9-1.8,4.9Z"></path>
    <path fill="#AEB68C" d="M114.7,550.2c-3.2-1.7-1.1-7.2.5-9.6l5.9-8.9c1.9-.6,4-.6,6.1-.5,1.6,7.9-3.5,17.9-12.5,19Z"></path>
    <path fill="#AEB68C" d="M100.6,484.6c-1.8.2-4.6-.5-6.3,1.2s-1.4,4.4-2.4,6.4c-4.8-6.7-2.8-16.4,3.2-21.9,5.3,2.7,6.7,8,5.5,14.3Z"></path>
    <path fill="#AEB68C" d="M122.6,473.9c-2.1-.1-3.3-.3-4.4.7s-.9,2.4-1.5,4.8c-2.3-3.1-4.5-5-7.3-7.2s-1.3-7.7,1-9.3,9.6,4.3,12.2,11.1Z"></path>
    <path fill="#AEB68C" d="M127.8,492.8l-7.5-6.8c-1.9-1.7-2.5-8.7.5-9.4,4.7-1.1,9,8,7,16.2Z"></path>
  </g>
  <g>
    <path fill="#AEB68C" d="M546.8,630.4l-9.3,1.7c.6,1.6,1.1,2.6,1.1,3.9s-1,2.7-2.8,3.1c-9.4,2.4-19-4.2-20.4-13.5,6,.8,11,.9,15.5-2.2,8.6,2.7,17.9-.9,18.2,3.6s-.7,3.1-2.4,3.4Z"></path>
    <path fill="#AEB68C" d="M520.3,586c5.1,9.8,2.9,20.5-5.2,29.6-.6-6.5-2.6-11.2-5-17s1.5-11,4.1-14.2,5.1-.4,6.1,1.6Z"></path>
    <path fill="#AEB68C" d="M495.3,604.6c-.3,5.6,1.2,10.6,4.7,14.6-7,.2-11.9-3.5-15.1-7.7-3.9-5.2-4.8-11-2.7-17,.6-1.8,1.8-3.4,4-3.3,3.5,4.1,6.4,8.5,9.1,13.4Z"></path>
    <path fill="#AEB68C" d="M510.5,622.3c-3.7.3-6.1-1.8-8.3-4.5-4.5-5.4-5.8-13.7-1.2-19.5s15.7,8.3,9.5,24Z"></path>
    <path fill="#AEB68C" d="M487.7,566.6c3.8,8.4.8,14.6.4,22-2-.7-3.3-1.1-4.7-.5s-1.8,1.9-3.1,3.9c-4.9-8.3-4.4-18.3,2.2-25.2,1.2-1.2,4.3-2.1,5.2-.2Z"></path>
    <path fill="#AEB68C" d="M479.2,595.8c-1.7,6.2,0,11.3,3,17.5-15.8-5-19.6-26.4-13.2-28.6,1.6-.6,3.6.4,4.6,2.1l5.6,9.1Z"></path>
    <path fill="#AEB68C" d="M556.8,603.2c3.6,4.9-7,20.3-23,17.4,4.2-3.1,6.5-7.2,6.6-12.5l11.8-5.7c1.6-.7,3.7-.3,4.6.8Z"></path>
    <path fill="#AEB68C" d="M537.4,601.2c-2.6-.8-4.7-.5-7,.8l-5.1,2.8c-1-10.8,8.8-26.3,13.5-23.4,4,2.5,3.2,13.4-1.4,19.8Z"></path>
    <path fill="#AEB68C" d="M538,606.7c0,10.5-12.4,18.3-23.5,15.5l8.7-12.2c1.9-2.7,6-3.3,8.7-4.9,1.2-1,2.3-1.5,3.6-1.3s2.6,1.3,2.6,2.9Z"></path>
    <path fill="#AEB68C" d="M497.6,622.8c-12.4,11.6-28.7,3-28.3-2.1.4-5,12-5.4,16.6-3,3.9,2,6.9,4.7,11.6,5.1Z"></path>
    <path fill="#AEB68C" d="M503.9,594.6c-.8-.3-2.4-.9-3.5-.2-2.1,1.4-2.9,3.5-4.5,5.7l-4-7.4c-3.1-8.5,2.8-19.7,8.5-18.3s3.5,10,2.7,16.7.2,1.7.7,3.5Z"></path>
    <path fill="#AEB68C" d="M552.6,576.6c7.3,1.6,3.9,21.8-12.1,27.1,2.7-6.3,4-11.3,3.7-18.1-.2-3.4,4.8-9.8,8.3-9Z"></path>
    <path fill="#AEB68C" d="M542.2,581.7c-1.1-1.8-2.3-3.3-3.7-3.8s-3.5.6-5.9,2.6c-2.9-6.9-1.9-19.7,3-20.3,4.6-.5,9.3,12.5,6.6,21.5Z"></path>
    <path fill="#AEB68C" d="M513.5,580.7c-3.9,3-4.1,8.9-6.2,13.3-1.8-10.1-2.8-22.6,5.2-30,4.2,2.9,5.1,8.7,4.7,13.1s-1.9,2.3-3.7,3.6Z"></path>
    <path fill="#AEB68C" d="M488.3,637.7c-2.2-2.9,2.1-7,4.6-8.5l9.1-5.5c2,.3,3.9,1.2,5.8,2.2-1.9,7.8-10.9,14.7-19.4,11.8Z"></path>
    <path fill="#AEB68C" d="M503.7,572.4c-1.7-.6-3.9-2.4-6.2-1.7s-3.1,3.3-4.9,4.8c-1.5-8.1,4.5-16,12.3-18.4,3.7,4.7,2.6,10.1-1.2,15.3Z"></path>
    <path fill="#AEB68C" d="M528.2,572.2c-1.9-1-2.9-1.7-4.3-1.2s-1.8,1.8-3.4,3.7c-.7-3.8-1.9-6.4-3.5-9.7s2.2-7.5,4.9-8,6.8,8,6.3,15.2Z"></path>
    <path fill="#AEB68C" d="M524.7,591.5l-3.8-9.4c-1-2.4,1.5-8.9,4.5-8.2,4.7,1.1,4.7,11.1-.7,17.6Z"></path>
  </g>
  <g>
    <path fill="#3F3B2C" d="M94.8,776.2v-43.1c0-6.8-3.6-11.3-10.8-11.9-4.3-.4-6.5-.4-6.5-3.2s1.4-3.4,3.4-3.4h45.8c2.3,0,3.4,1.8,3.4,3.4s-1.3,3.2-3.4,3.2h-3.1c-7.4,0-11.7,4.3-11.7,11.9v95.4c0,10.2,7.4,12,11.7,12h3.1c2.2,0,3.4,1.6,3.4,3.2s-1.3,3.2-3.4,3.2h-45.8c-2.2,0-3.4-1.6-3.4-3.2,0-3.2,3.2-3.2,5.6-3.2,7.4,0,11.7-4.5,11.7-12v-45.8h-56.8v45.8c0,7,3.6,11.5,10.8,12,3.8.2,6.3.2,6.3,3.2s-1.3,3.2-3.4,3.2H5.9c-2.2,0-3.4-1.6-3.4-3.2s1.3-3.2,3.4-3.2h3.1c7.2,0,11.7-4.3,11.7-12v-95.4c0-7.4-4.1-11.9-11.7-11.9h-3.1c-2.2,0-3.4-1.8-3.4-3.2s1.3-3.4,3.4-3.4h45.8c2.2,0,3.4,1.8,3.4,3.4,0,3.2-3.2,3.2-5.6,3.2-7.9,0-11.5,5-11.5,11.9v43.1h56.8Z"></path>
    <path fill="#3F3B2C" d="M163.8,800.6c-1.1,41,27.4,41,29.8,41,11.9,0,20.6-7,24.6-11.5,3.2-3.6,3.8-4,4.9-4,1.9,0,3.4,1.3,3.4,3.1s-12.7,21.2-38.2,21.2-43.6-25-43.6-46,14.5-47.2,42.1-47.2,39.1,18.5,40.2,43.5h-63.3ZM207.4,794.1c-.8-24.4-12.3-30.4-21.2-30.4-13.2,0-21,12.2-22.3,30.4h43.4Z"></path>
    <path fill="#3F3B2C" d="M277.2,829c0,1.8,0,11.1,8.6,11.5,1.3,0,4.5,0,4.5,3.2s-1.4,3.2-3.4,3.2h-35.9c-2.2,0-3.4-1.6-3.4-3.2,0-3.1,2.9-3.2,4.7-3.4,6.3-.4,8.4-5.2,8.4-11.3v-100.4c0-6.6-4.1-7-5.7-7.2-4.5-.4-6.3-.5-6.3-3.4s1.8-3.4,3.1-3.4h21.7c2.3,0,3.8,1.1,3.8,3.8v110.6Z"></path>
    <path fill="#3F3B2C" d="M335.5,858.3c0,6.6,2.5,11.5,9.5,11.5s4.3.7,4.3,3.2-1.1,3.4-3.4,3.4h-35.4c-2.2,0-3.4-1.8-3.4-3.4,0-2.5,1.4-3.2,4.3-3.2,7-.2,8.4-5.9,8.4-11.5v-83.7c0-6.8-4.1-7-5.7-7.2-4.5-.4-6.3-.5-6.3-3.4s1.4-3.4,3.1-3.4h21c2.2,0,3.6,1.1,3.6,3.6v7.7c2.9-4,10.4-14.7,26.6-14.7s35.9,16,35.9,45.3-25.3,48-37.7,48-20.8-7-24.8-12v19.9ZM335.5,820.7c0,16.9,13.1,21.2,20.3,21.2,13.7,0,24.8-12.9,24.8-38.8s-14.4-36.8-23.9-36.8-21.2,5-21.2,23.9v30.5Z"></path>
    <path fill="#3F3B2C" d="M421.3,847c-2.2,0-3.4-1.6-3.4-3.2,0-3.2,3.1-3.2,5.4-3.2s12.2-1.4,12.2-15.3v-90.9c0-7.9-3.2-13.1-11.5-13.1s-6.1,0-6.1-3.2,1.1-3.4,3.4-3.4h59.6c22.8,0,44,8.8,44,30.7s-18.7,27.5-29.6,31.1c7.4,1.6,12.9,2.9,20.1,7.7,12.8,8.3,16.2,18.9,16.2,27.5,0,18.3-18,35.4-49.4,35.4h-60.9ZM452.7,773.5h27.1c10.1,0,25.5-4.5,25.5-26.8s-2-25.5-25-25.5h-14.4c-10.2,0-13.3,4.3-13.3,11.5v40.8ZM452.7,780v47.8c0,7.4,2.5,12.8,16.5,12.8h11.1c18.3,0,31.8-8.4,31.8-29.3s-5.7-31.3-32-31.3h-27.5Z"></path>
    <path fill="#3F3B2C" d="M572.4,800.6c-1.1,41,26,41,28.4,41,11.3,0,19.6-7,23.3-11.5,3.1-3.6,3.6-4,4.7-4,1.8,0,3.2,1.3,3.2,3.1s-12,21.2-36.3,21.2-41.5-25-41.5-46,13.8-47.2,40.1-47.2,37.2,18.5,38.3,43.5h-60.2ZM613.8,794.1c-.7-24.4-11.7-30.4-20.1-30.4-12.6,0-19.9,12.2-21.2,30.4h41.3Z"></path>
    <path fill="#3F3B2C" d="M674.2,800.6c-1.1,41,26,41,28.4,41,11.3,0,19.6-7,23.3-11.5,3.1-3.6,3.6-4,4.7-4,1.8,0,3.2,1.3,3.2,3.1s-12,21.2-36.3,21.2-41.5-25-41.5-46,13.8-47.2,40.1-47.2,37.2,18.5,38.3,43.5h-60.2ZM715.7,794.1c-.7-24.4-11.7-30.4-20.1-30.4-12.6,0-19.9,12.2-21.2,30.4h41.3Z"></path>
  </g>
</svg>