<svg xmlns="http://www.w3.org/2000/svg" viewBox="0 702 742.6 176">
<g>
    <path fill="#3F3B2C" d="M94.8,776.2v-43.1c0-6.8-3.6-11.3-10.8-11.9-4.3-.4-6.5-.4-6.5-3.2s1.4-3.4,3.4-3.4h45.8c2.3,0,3.4,1.8,3.4,3.4s-1.3,3.2-3.4,3.2h-3.1c-7.4,0-11.7,4.3-11.7,11.9v95.4c0,10.2,7.4,12,11.7,12h3.1c2.2,0,3.4,1.6,3.4,3.2s-1.3,3.2-3.4,3.2h-45.8c-2.2,0-3.4-1.6-3.4-3.2,0-3.2,3.2-3.2,5.6-3.2,7.4,0,11.7-4.5,11.7-12v-45.8h-56.8v45.8c0,7,3.6,11.5,10.8,12,3.8.2,6.3.2,6.3,3.2s-1.3,3.2-3.4,3.2H5.9c-2.2,0-3.4-1.6-3.4-3.2s1.3-3.2,3.4-3.2h3.1c7.2,0,11.7-4.3,11.7-12v-95.4c0-7.4-4.1-11.9-11.7-11.9h-3.1c-2.2,0-3.4-1.8-3.4-3.2s1.3-3.4,3.4-3.4h45.8c2.2,0,3.4,1.8,3.4,3.4,0,3.2-3.2,3.2-5.6,3.2-7.9,0-11.5,5-11.5,11.9v43.1h56.8Z"></path>
    <path fill="#3F3B2C" d="M163.8,800.6c-1.1,41,27.4,41,29.8,41,11.9,0,20.6-7,24.6-11.5,3.2-3.6,3.8-4,4.9-4,1.9,0,3.4,1.3,3.4,3.1s-12.7,21.2-38.2,21.2-43.6-25-43.6-46,14.5-47.2,42.1-47.2,39.1,18.5,40.2,43.5h-63.3ZM207.4,794.1c-.8-24.4-12.3-30.4-21.2-30.4-13.2,0-21,12.2-22.3,30.4h43.4Z"></path>
    <path fill="#3F3B2C" d="M277.2,829c0,1.8,0,11.1,8.6,11.5,1.3,0,4.5,0,4.5,3.2s-1.4,3.2-3.4,3.2h-35.9c-2.2,0-3.4-1.6-3.4-3.2,0-3.1,2.9-3.2,4.7-3.4,6.3-.4,8.4-5.2,8.4-11.3v-100.4c0-6.6-4.1-7-5.7-7.2-4.5-.4-6.3-.5-6.3-3.4s1.8-3.4,3.1-3.4h21.7c2.3,0,3.8,1.1,3.8,3.8v110.6Z"></path>
    <path fill="#3F3B2C" d="M335.5,858.3c0,6.6,2.5,11.5,9.5,11.5s4.3.7,4.3,3.2-1.1,3.4-3.4,3.4h-35.4c-2.2,0-3.4-1.8-3.4-3.4,0-2.5,1.4-3.2,4.3-3.2,7-.2,8.4-5.9,8.4-11.5v-83.7c0-6.8-4.1-7-5.7-7.2-4.5-.4-6.3-.5-6.3-3.4s1.4-3.4,3.1-3.4h21c2.2,0,3.6,1.1,3.6,3.6v7.7c2.9-4,10.4-14.7,26.6-14.7s35.9,16,35.9,45.3-25.3,48-37.7,48-20.8-7-24.8-12v19.9ZM335.5,820.7c0,16.9,13.1,21.2,20.3,21.2,13.7,0,24.8-12.9,24.8-38.8s-14.4-36.8-23.9-36.8-21.2,5-21.2,23.9v30.5Z"></path>
    <path fill="#3F3B2C" d="M421.3,847c-2.2,0-3.4-1.6-3.4-3.2,0-3.2,3.1-3.2,5.4-3.2s12.2-1.4,12.2-15.3v-90.9c0-7.9-3.2-13.1-11.5-13.1s-6.1,0-6.1-3.2,1.1-3.4,3.4-3.4h59.6c22.8,0,44,8.8,44,30.7s-18.7,27.5-29.6,31.1c7.4,1.6,12.9,2.9,20.1,7.7,12.8,8.3,16.2,18.9,16.2,27.5,0,18.3-18,35.4-49.4,35.4h-60.9ZM452.7,773.5h27.1c10.1,0,25.5-4.5,25.5-26.8s-2-25.5-25-25.5h-14.4c-10.2,0-13.3,4.3-13.3,11.5v40.8ZM452.7,780v47.8c0,7.4,2.5,12.8,16.5,12.8h11.1c18.3,0,31.8-8.4,31.8-29.3s-5.7-31.3-32-31.3h-27.5Z"></path>
    <path fill="#3F3B2C" d="M572.4,800.6c-1.1,41,26,41,28.4,41,11.3,0,19.6-7,23.3-11.5,3.1-3.6,3.6-4,4.7-4,1.8,0,3.2,1.3,3.2,3.1s-12,21.2-36.3,21.2-41.5-25-41.5-46,13.8-47.2,40.1-47.2,37.2,18.5,38.3,43.5h-60.2ZM613.8,794.1c-.7-24.4-11.7-30.4-20.1-30.4-12.6,0-19.9,12.2-21.2,30.4h41.3Z"></path>
    <path fill="#3F3B2C" d="M674.2,800.6c-1.1,41,26,41,28.4,41,11.3,0,19.6-7,23.3-11.5,3.1-3.6,3.6-4,4.7-4,1.8,0,3.2,1.3,3.2,3.1s-12,21.2-36.3,21.2-41.5-25-41.5-46,13.8-47.2,40.1-47.2,37.2,18.5,38.3,43.5h-60.2ZM715.7,794.1c-.7-24.4-11.7-30.4-20.1-30.4-12.6,0-19.9,12.2-21.2,30.4h41.3Z"></path>
  </g>
</svg>